<?xml version="1.0" standalone="no"?>
<!DOCTYPE svg PUBLIC "-//W3C//DTD SVG 1.1//EN" "http://www.w3.org/Graphics/SVG/1.1/DTD/svg11.dtd" >
<!--
2013-9-30: Created.
-->
<svg>
<metadata>
Created by iconfont
</metadata>
<defs>

<font id="iconfont" horiz-adv-x="1024" >
  <font-face
    font-family="iconfont"
    font-weight="500"
    font-stretch="normal"
    units-per-em="1024"
    ascent="896"
    descent="-128"
  />
    <missing-glyph />
    
    <glyph glyph-name="suoxiao" unicode="&#58921;" d="M975.37592889-64.26624000000004L817.32494222 93.78474667C898.62599111 178.83591110999998 948.90666667 293.74236444999997 948.90666667 420.40888889c0 260.97891555-212.33664 473.31555555-473.31555556 473.31555556S2.27555555 681.38780445 2.27555555 420.40888889s212.33664-473.31555555 473.31555556-473.31555556c108.09799111 0 207.56707555 36.84579555 287.33895111 98.08554667l160.92728889-160.92728889a36.29966222 36.29966222 0 0 1 51.48216889 0 36.40888889 36.40888889 0 0 1 0.03640889 51.48216889zM75.09333333 420.40888889c0 220.81991111 179.67786667 400.49777778 400.49777778 400.49777778s400.49777778-179.67786667 400.49777778-400.49777778-179.67786667-400.49777778-400.49777778-400.49777778-400.49777778 179.67786667-400.49777778 400.49777778zM641.47000889 456.81777778H311.75111111a36.40888889 36.40888889 0 0 1 0-72.81777778h329.71889778a36.40888889 36.40888889 0 1 1 0 72.81777778z"  horiz-adv-x="1024" />

    
    <glyph glyph-name="fangda" unicode="&#58924;" d="M975.37592889-64.26624000000004L817.32494222 93.78474667C898.62599111 178.83591110999998 948.90666667 293.74236444999997 948.90666667 420.40888889c0 260.97891555-212.33664 473.31555555-473.31555556 473.31555556S2.27555555 681.38780445 2.27555555 420.40888889s212.33664-473.31555555 473.31555556-473.31555556c108.09799111 0 207.56707555 36.84579555 287.33895111 98.08554667l160.92728889-160.92728889a36.29966222 36.29966222 0 0 1 51.48216889 0 36.40888889 36.40888889 0 0 1 0.03640889 51.48216889zM75.09333333 420.40888889c0 220.81991111 179.67786667 400.49777778 400.49777778 400.49777778s400.49777778-179.67786667 400.49777778-400.49777778-179.67786667-400.49777778-400.49777778-400.49777778-400.49777778 179.67786667-400.49777778 400.49777778zM641.47000889 456.81777778H512V584.24888889a36.40888889 36.40888889 0 0 1-72.81777778 0v-127.43111111H311.75111111a36.40888889 36.40888889 0 0 1 0-72.81777778h127.43111111v-127.43111111a36.40888889 36.40888889 0 1 1 72.81777778 0V384h129.47000889a36.40888889 36.40888889 0 1 1 0 72.81777778z"  horiz-adv-x="1024" />

    
    <glyph glyph-name="tuodongdian1" unicode="&#59010;" d="M274.365217 784.695652m-111.304347 0a111.304348 111.304348 0 1 1 222.608695 0 111.304348 111.304348 0 1 1-222.608695 0ZM749.634783 784.695652m-111.304348 0a111.304348 111.304348 0 1 1 222.608695 0 111.304348 111.304348 0 1 1-222.608695 0ZM274.365217 384m-111.304347 0a111.304348 111.304348 0 1 1 222.608695 0 111.304348 111.304348 0 1 1-222.608695 0ZM749.634783 384m-111.304348 0a111.304348 111.304348 0 1 1 222.608695 0 111.304348 111.304348 0 1 1-222.608695 0ZM274.365217-16.695652m-111.304347 0a111.304348 111.304348 0 1 1 222.608695 0 111.304348 111.304348 0 1 1-222.608695 0ZM749.634783-16.695652m-111.304348 0a111.304348 111.304348 0 1 1 222.608695 0 111.304348 111.304348 0 1 1-222.608695 0Z"  horiz-adv-x="1024" />

    
    <glyph glyph-name="chakan" unicode="&#58892;" d="M697.625-66C416.375-66 174.5 114 95.75 378.375v11.25C180.125 654 422 834 697.625 834c275.625 0 517.5-180 601.875-438.75v-22.5c-84.375-258.75-326.25-438.75-601.875-438.75zM152 384c73.125-236.25 292.5-393.75 545.625-393.75 247.5 0 466.875 157.5 545.625 393.75-78.75 236.25-298.125 393.75-545.625 393.75C450.125 777.75 230.75 620.25 152 384zM697.625 130.875C562.625 130.875 455.75 243.375 455.75 384s106.875 253.125 241.875 253.125 241.875-112.5 241.875-253.125-106.875-253.125-241.875-253.125z m0 450C596.375 580.875 512 490.875 512 384s84.375-196.875 185.625-196.875 185.625 90 185.625 196.875-84.375 196.875-185.625 196.875z"  horiz-adv-x="1408" />

    
    <glyph glyph-name="gengduojiabian" unicode="&#58894;" d="M512-118.690909C232.727273-118.690909 9.309091 104.727273 9.309091 384S232.727273 886.690909 512 886.690909 1014.690909 663.272727 1014.690909 384 791.272727-118.690909 512-118.690909z m0 958.836364c-251.345455 0-456.145455-204.8-456.145455-456.145455s204.8-456.145455 456.145455-456.145455 456.145455 204.8 456.145455 456.145455-204.8 456.145455-456.145455 456.145455zM325.818182 384m-46.545455 0a46.545455 46.545455 0 1 1 93.090909 0 46.545455 46.545455 0 1 1-93.090909 0ZM512 384m-46.545455 0a46.545455 46.545455 0 1 1 93.09091 0 46.545455 46.545455 0 1 1-93.09091 0ZM698.181818 384m-46.545454 0a46.545455 46.545455 0 1 1 93.090909 0 46.545455 46.545455 0 1 1-93.090909 0Z"  horiz-adv-x="1024" />

    
    <glyph glyph-name="jianhao" unicode="&#58895;" d="M512-128C228.072727-128 0 100.072727 0 384S228.072727 896 512 896s512-228.072727 512-512-228.072727-512-512-512z m0 46.545455c256 0 465.454545 209.454545 465.454545 465.454545S768 849.454545 512 849.454545 46.545455 640 46.545455 384s209.454545-465.454545 465.454545-465.454545zM349.090909 407.272727h325.818182v-46.545454h-325.818182z"  horiz-adv-x="1024" />

    
    <glyph glyph-name="sangedian" unicode="&#58896;" d="M185.856 382.976c0-38.912 31.232-70.144 70.144-70.144s70.144 31.232 70.144 70.144S294.912 453.12 256 453.12s-70.144-31.232-70.144-70.144zM443.392 382.976c0-38.912 31.232-70.144 70.144-70.144s70.144 31.232 70.144 70.144-31.232 70.144-70.144 70.144-70.144-31.232-70.144-70.144zM700.928 382.976c0-38.912 31.232-70.144 70.144-70.144s70.144 31.232 70.144 70.144-31.232 70.144-70.144 70.144-70.144-31.232-70.144-70.144z"  horiz-adv-x="1024" />

    
    <glyph glyph-name="jiahao" unicode="&#58897;" d="M512-128C228.072727-128 0 100.072727 0 384S228.072727 896 512 896s512-228.072727 512-512-228.072727-512-512-512z m0 46.545455c256 0 465.454545 209.454545 465.454545 465.454545S768 849.454545 512 849.454545 46.545455 640 46.545455 384s209.454545-465.454545 465.454545-465.454545zM349.090909 407.272727h325.818182v-46.545454h-325.818182zM488.727273 546.909091h46.545454v-325.818182h-46.545454z"  horiz-adv-x="1024" />

    
    <glyph glyph-name="yidong" unicode="&#58898;" d="M721.454545 658.618182h-46.545454V826.181818c0 13.963636-9.309091 23.272727-23.272727 23.272727h-512c-13.963636 0-23.272727-9.309091-23.272728-23.272727v-884.363636c0-13.963636 9.309091-23.272727 23.272728-23.272727h512c13.963636 0 23.272727 9.309091 23.272727 23.272727v158.254545h46.545454V-81.454545c0-27.927273-18.618182-46.545455-46.545454-46.545455H116.363636c-27.927273 0-46.545455 18.618182-46.545454 46.545455V849.454545c0 27.927273 18.618182 46.545455 46.545454 46.545455h558.545455c27.927273 0 46.545455-18.618182 46.545454-46.545455v-190.836363zM349.090909 407.272727h567.854546v-46.545454H349.090909zM754.036364 579.490909L954.181818 384l-32.581818-32.581818L721.454545 546.909091zM921.6 416.581818L721.454545 221.090909l32.581819-32.581818L954.181818 384z"  horiz-adv-x="1024" />

    
    <glyph glyph-name="bianji" unicode="&#58899;" d="M686.695279 879.153076v-45.779685H91.559371c-27.467811 0-45.779685-18.311874-45.779686-45.779686v-824.034334c0-27.467811 18.311874-45.779685 45.779686-45.779686h824.034334c27.467811 0 45.779685 18.311874 45.779686 45.779686V512.915594h45.779685v-549.356223c0-50.357654-41.201717-91.559371-91.559371-91.559371H91.559371c-50.357654 0-91.559371 41.201717-91.559371 91.559371V787.593705C0 837.951359 41.201717 879.153076 91.559371 879.153076h595.135908zM486.683834 391.050072l504.949929 504.949928 32.412017-32.320458-504.949929-504.995708z"  horiz-adv-x="1052" />

    
    <glyph glyph-name="shuju" unicode="&#58900;" d="M293.236364 281.6l-27.927273 37.236364 237.381818 232.727272 190.836364-190.836363 269.963636 274.618182 37.236364-37.236364-307.2-302.545455-190.836364 190.836364zM46.545455 896v-930.909091c0-27.927273 18.618182-46.545455 46.545454-46.545454h930.909091v-46.545455H93.090909c-51.2 0-93.090909 41.890909-93.090909 93.090909V896h46.545455z"  horiz-adv-x="1024" />

    
    <glyph glyph-name="shangyi" unicode="&#58901;" d="M417.28-128h-46.545455V872.727273h46.545455zM412.625455 858.763636l-344.436364-349.090909-32.581818 32.581818 344.436363 344.436364c9.309091 9.309091 23.272727 9.309091 32.581819 0 9.309091-4.654545 9.309091-18.618182 0-27.927273zM1070.545455 616.727273H558.545455V663.272727h512zM1070.545455 360.727273H558.545455v46.545454h512zM1070.545455 104.727273H558.545455v46.545454h512z"  horiz-adv-x="1070" />

    
    <glyph glyph-name="xiayi" unicode="&#58902;" d="M697.295238-118.247619c-24.380952 0-39.009524 14.628571-39.009524 39.009524V896h48.761905v-950.857143l312.076191 331.580953 34.133333-34.133334-326.704762-346.209524c0-4.87619-9.752381-14.628571-29.257143-14.628571zM0 652.190476h536.380952v-48.761905H0zM0 384h536.380952v-48.761905H0zM0 115.809524h536.380952v-48.761905H0z"  horiz-adv-x="1072" />

    
    <glyph glyph-name="shanchu" unicode="&#58903;" d="M814.545455-128H209.454545c-51.2 0-93.090909 41.890909-93.090909 93.090909V756.363636h791.272728v-791.272727c0-51.2-41.890909-93.090909-93.090909-93.090909zM162.909091 709.818182v-744.727273c0-23.272727 23.272727-46.545455 46.545454-46.545454h605.09091c23.272727 0 46.545455 23.272727 46.545454 46.545454V709.818182H162.909091zM395.636364 477.090909h46.545454v-372.363636H395.636364zM581.818182 477.090909h46.545454v-372.363636h-46.545454zM23.272727 756.363636h977.454546v-46.545454H23.272727zM721.454545 709.818182H302.545455V802.909091c0 51.2 41.890909 93.090909 93.090909 93.090909h232.727272c51.2 0 93.090909-41.890909 93.090909-93.090909v-93.090909zM349.090909 756.363636h325.818182V802.909091c0 23.272727-23.272727 46.545455-46.545455 46.545454H395.636364c-23.272727 0-46.545455-23.272727-46.545455-46.545454v-46.545455z"  horiz-adv-x="1024" />

    
    <glyph glyph-name="xiazai" unicode="&#58904;" d="M1162.00000039 534.00000029v-500.00000009c0-55.0000002-45-100.0000002-100.00000019-100.0000002H162.0000002c-55.0000002 0-100.0000002 45-100.0000002 100.0000002V534.00000029h50.0000001v-500.00000009c0-29.99999971 20.00000039-50.0000001 50.0000001-50.0000001h900c29.99999971 0 50.0000001 20.00000039 50.00000009 50.0000001V534.00000029h50.0000001zM586.99999971 834h50.0000001v-664.9999998h-50.0000001zM882.00000019 474l-304.9999998-299.99999971 34.9999998-35.00000068 304.99999981 300.00000058zM342.0000002 474l304.9999998-299.99999971-34.9999998-35.00000068-304.99999981 300.00000058z"  horiz-adv-x="1251" />

    
    <glyph glyph-name="shuaxin" unicode="&#58905;" d="M972.8 858.763636v-232.727272h-232.727273zM907.636364 751.709091C814.545455 840.145455 688.872727 896 544.581818 896 256 896 23.272727 667.927273 23.272727 384s232.727273-512 521.309091-512c162.909091 0 311.854545 74.472727 409.6 190.836364l-32.581818 32.581818c-88.436364-107.054545-223.418182-176.872727-372.363636-176.872727C283.927273-81.454545 69.818182 128 69.818182 384S283.927273 849.454545 544.581818 849.454545c125.672727 0 242.036364-51.2 330.472727-130.327272l32.581819 32.581818z"  horiz-adv-x="1024" />

    
    <glyph glyph-name="huifu" unicode="&#58906;" d="M140.122572 647.080797l36.32148-26.083808c-114.706438-216.459996-40.817153-480.146819 167.363682-600.328186 177.334284-102.37672 392.815025-67.479612 530.311412 63.874171l36.32148-26.083808c-150.894384-154.455313-392.280886-189.842049-588.888701-76.337424-231.282365 133.534853-313.361788 427.62311-181.429353 665.003566zM994.834653 169.026024l-36.32148 26.12832c112.480858 212.587486 38.547061 476.274308-169.589263 596.455675C615.462136 891.761159 404.432557 864.609072 266.936171 733.210777l-36.32148 26.128319c152.45229 148.357221 387.829724 182.097028 580.565028 70.817984 231.282365-133.534853 309.489277-425.397529 183.654934-661.131056zM1121.692763 192.483647l-173.595309-44.511618-44.511617 173.595309zM240.362735 521.869617l-44.511618 173.595308-169.144146-44.511617z"  horiz-adv-x="1157" />

    
    <glyph glyph-name="yiwen" unicode="&#58907;" d="M479.418182 616.727273h65.163636c9.309091 0 13.963636-4.654545 13.963637-13.963637l-13.963637-297.890909c0-9.309091-4.654545-13.963636-13.963636-13.963636h-32.581818c-9.309091 0-13.963636 4.654545-13.963637 13.963636L465.454545 602.763636c0 9.309091 4.654545 13.963636 13.963637 13.963637z m32.581818-465.454546c-27.927273 0-46.545455 18.618182-46.545455 46.545455s18.618182 46.545455 46.545455 46.545454 46.545455-18.618182 46.545455-46.545454-18.618182-46.545455-46.545455-46.545455zM512-128C228.072727-128 0 100.072727 0 384S228.072727 896 512 896s512-228.072727 512-512-228.072727-512-512-512z m0 46.545455c256 0 465.454545 209.454545 465.454545 465.454545S768 849.454545 512 849.454545 46.545455 640 46.545455 384s209.454545-465.454545 465.454545-465.454545z"  horiz-adv-x="1024" />

    
    <glyph glyph-name="guanbi" unicode="&#58908;" d="M139.28097069 743.57310278l34.65401834 34.65401757 748.45145041-748.45145041-34.65401756-34.65401834zM139.28097069 24.42689722L887.73242188 772.8783484l34.65401756-34.65401834-748.45145041-748.41378293z"  horiz-adv-x="1072" />

    
    <glyph glyph-name="duihao" unicode="&#58909;" d="M470.80126946 70.88964811000005L1175.29956047 742.42895484l37.07885742-41.19873056L507.88012688 29.69091830000002zM215.36914062 396.35961937l329.58984368-321.35009812-37.07885742-45.31860295-329.58984368 325.46997053z"  horiz-adv-x="1479" />

    
    <glyph glyph-name="cuowu" unicode="&#58910;" d="M512-128C228.072727-128 0 100.072727 0 384S228.072727 896 512 896s512-228.072727 512-512-228.072727-512-512-512z m0 46.545455c256 0 465.454545 209.454545 465.454545 465.454545S768 849.454545 512 849.454545 46.545455 640 46.545455 384s209.454545-465.454545 465.454545-465.454545zM256 407.272727h512v-46.545454h-512z"  horiz-adv-x="1024" />

    
    <glyph glyph-name="qiehuanxingshiyi" unicode="&#58911;" d="M680.00000029 701.99999971L662.00000029 636H392.00000029c-144 0-263.99999971-119.99999971-264.00000058-263.99999971s119.99999971-263.99999971 264.00000058-264.00000058h126l-18-65.99999971H392.00000029c-180 0-330.00000029 150.00000029-330.00000029 330.00000029s150.00000029 330.00000029 330.00000029 329.99999942h288zM721.99999971 42l18 65.99999971h270c144 0 263.99999971 119.99999971 264.00000058 264.00000058s-119.99999971 263.99999971-264.00000058 263.99999971h-126l18 65.99999971h108c180 0 330.00000029-150.00000029 330.00000029-329.99999942s-150.00000029-330.00000029-330.00000029-330.00000029H721.99999971zM764 672L626.00000029 528V809.99999971zM680.00000029 78l137.99999971 137.99999971V-66z"  horiz-adv-x="1501" />

    
    <glyph glyph-name="qiehuanxingshier" unicode="&#58912;" d="M114.23214297 564.80357107h1325.89285703v-60.26785702H114.23214297zM114.23214297 564.80357107L391.46428595 787.79464297l42.1875-48.21428594L156.41964297 504.53571405zM1452.17857108 203.19642893000002H126.28571405V263.46428595h1325.89285703zM1452.17857108 203.19642893000002L1174.94642892-19.79464297000004l-42.1875 48.21428594L1409.99107108 263.46428595z"  horiz-adv-x="1682" />

    
    <glyph glyph-name="fabu" unicode="&#58913;" d="M617.081905-128L524.434286 384 2.681905 515.657143l1121.523809 380.342857-507.123809-1024z m-438.857143 648.533333l390.095238-97.523809 73.142857-399.847619 390.095238 785.066666L178.224762 520.533333z"  horiz-adv-x="1177" />

    
    <glyph glyph-name="jiantouxia" unicode="&#58914;" d="M485.78206906-67.29931031000001V859.69655156h32.77241344v-926.96275875zM200.19862062 208.91586186999996l23.40413813 23.40413813 304.32-304.28689688-23.40413813-23.40413718zM785.40137937 232.32000000000005l23.40413813-23.40413813-304.28689688-304.28689593-23.43724125 23.40413718z"  horiz-adv-x="1024" />

    
    <glyph glyph-name="jiantoushang" unicode="&#58915;" d="M521.147733 816.366933l272.725334-272.725333 24.1664 24.098133L528.384 857.429333 504.285867 881.527467 190.464 567.739733l24.132267-24.132266 272.725333 272.725333v-917.162667h33.792V816.3328z"  horiz-adv-x="1024" />

    
    <glyph glyph-name="jiantouyoushangjiao" unicode="&#58916;" d="M916.54799097 747.11383935L170.8462615 1.4121091199999682l-26.63085965 26.63085963L889.95479881 773.78236569zM922.57477685 289.83147314999997h-37.66741089V779.5078125h37.6674109zM432.8984375 741.8404016V779.5078125h489.67633935v-37.6674109z"  horiz-adv-x="1072" />

    
    <glyph glyph-name="jiantou" unicode="&#58917;" d="M203.12723218 741.8404016h425.64174122V779.5078125H139.09263403v-489.67633935h37.66741091V715.47321435l715.68080321-715.68080397 26.36718724 26.36718802-715.68080321 715.6808032z"  horiz-adv-x="1072" />

    
    <glyph glyph-name="you" unicode="&#58918;" d="M1194.51554797 416.40995648l-310.87100832 310.87100762 27.50760939 27.50761012 330.13022602-330.13022602 27.50761012-27.50760939-357.63783614-357.63783614-27.50760939 27.50761012 310.87100832 310.87100833H149.07074295v38.51843536h1045.44480502z"  horiz-adv-x="1561" />

    
    <glyph glyph-name="zuo" unicode="&#58919;" d="M223.94228665 416.7338309L534.40708667 727.23759994 506.85611238 754.78857422 176.20544986 424.09894267l-27.55097429-27.55097428 358.20163681-358.20163681 27.55097429 27.550975-311.86767859 311.86767787h1046.5083722v38.96884645H223.94228665z"  horiz-adv-x="1560" />

    
    <glyph glyph-name="wenzi" unicode="&#58920;" d="M487.619048 896h48.761904L97.52381-128H48.761905zM536.380952 896H487.619048l438.857142-1024h48.761905zM214.552381 262.095238h594.895238v-48.761905H214.552381z"  horiz-adv-x="1024" />

    
    <glyph glyph-name="xiantiao" unicode="&#58922;" d="M0 896h1251.555556v-56.888889H0zM0 577.422222h1251.555556v-56.888889H0zM0 253.155556h1251.555556v-56.888889H0zM0-71.111111h580.266667v-56.888889H0z"  horiz-adv-x="1251" />

    
    <glyph glyph-name="anniu" unicode="&#58923;" d="M56.888889 896h1137.777778c34.133333 0 56.888889-22.755556 56.888889-56.888889v-910.222222c0-34.133333-22.755556-56.888889-56.888889-56.888889H56.888889c-34.133333 0-56.888889 22.755556-56.888889 56.888889V839.111111c0 34.133333 22.755556 56.888889 56.888889 56.888889z m28.444444-56.888889c-17.066667 0-28.444444-11.377778-28.444444-28.444444v-853.333334c0-17.066667 11.377778-28.444444 28.444444-28.444444h1080.888889c17.066667 0 28.444444 11.377778 28.444445 28.444444v853.333334c0 17.066667-11.377778 28.444444-28.444445 28.444444h-1080.888889zM227.555556 412.444444h796.444444v-56.888888H227.555556z"  horiz-adv-x="1251" />

    
    <glyph glyph-name="liu" unicode="&#58933;" d="M1024 42.666667v53.638095h73.142857c14.628571 0 24.380952 9.752381 24.380953 24.380952V798.47619c0 14.628571-9.752381 24.380952-24.380953 24.380953h-828.952381c-14.628571 0-24.380952-14.628571-24.380952-24.380953v-68.266666H195.047619v97.523809c0 29.257143 19.504762 48.761905 48.761905 48.761905h877.714286c29.257143 0 48.761905-19.504762 48.761904-48.761905v-731.428571c0-29.257143-19.504762-48.761905-48.761904-48.761905h-97.52381zM950.857143-103.619048H97.52381c-29.257143 0-48.761905 19.504762-48.761905 48.761905v731.428572c0 29.257143 19.504762 48.761905 48.761905 48.761904h877.714285c29.257143 0 48.761905-19.504762 48.761905-48.761904v-731.428572c0-29.257143-19.504762-48.761905-48.761905-48.761905h-24.380952z m-833.828572 48.761905h838.704762c9.752381 4.87619 19.504762 14.628571 19.504762 24.380953V652.190476c0 9.752381-4.87619 19.504762-14.628571 24.380953H112.152381c-9.752381 0-14.628571-9.752381-14.628571-19.504762V-30.47619c0-9.752381 9.752381-19.504762 19.504761-24.380953zM92.647619-20.72381l-43.885714 29.257143 243.809524 326.704762L463.238095 213.333333 682.666667 496.152381l336.457143-385.219048-34.133334-29.257143L682.666667 418.133333l-209.676191-268.190476-170.666666 117.028572z"  horiz-adv-x="1170" />

    
    <glyph glyph-name="huandengpian" unicode="&#58935;" d="M1194.666667-122.311111H56.888889c-34.133333 0-56.888889 22.755556-56.888889 56.888889V839.111111c0 34.133333 22.755556 56.888889 56.888889 56.888889h1137.777778c34.133333 0 56.888889-22.755556 56.888889-56.888889v-904.533333c0-28.444444-22.755556-56.888889-56.888889-56.888889zM56.888889 839.111111v-904.533333h1137.777778V839.111111H56.888889z m0 28.444445V839.111111 867.555556zM728.177778 241.777778L534.755556 452.266667l-244.622223-204.8-34.133333 45.511111 284.444444 238.933333 193.422223-210.488889 244.622222 216.177778 39.822222-45.511111z"  horiz-adv-x="1251" />

    
    <glyph glyph-name="liebiao" unicode="&#58936;" d="M481.882353 444.235294h831.247059v-60.235294H481.882353zM18.070588 426.164706h259.011765v-60.235294H18.070588zM481.882353 841.788235h831.247059v-60.235294H481.882353zM18.070588 835.764706h259.011765v-60.235294H18.070588zM481.882353-1.5058820000000424h831.247059v-60.235294H481.882353zM18.070588-7.529411999999979h259.011765v-60.235294H18.070588z"  horiz-adv-x="1325" />

    
    <glyph glyph-name="icon-test" unicode="&#58958;" d="M0 896h538.947368v-1024H0zM646.736842 896h538.947369v-1024H646.736842z"  horiz-adv-x="1185" />

    
    <glyph glyph-name="icon-test1" unicode="&#58959;" d="M0 896h323.368421v-1024H0zM431.157895 896h323.368421v-1024H431.157895zM862.315789 896h323.368422v-1024h-323.368422z"  horiz-adv-x="1185" />

    
    <glyph glyph-name="icon-test2" unicode="&#58960;" d="M970.105263 896h215.578948v-1024h-215.578948zM646.736842 896h215.578947v-1024h-215.578947zM323.368421 896h215.578947v-1024H323.368421zM0 896h215.578947v-1024H0z"  horiz-adv-x="1185" />

    
    <glyph glyph-name="-" unicode="&#58961;" d="M0 896h269.473684v-1024H0zM377.263158 896h808.421053v-1024H377.263158z"  horiz-adv-x="1185" />

    
    <glyph glyph-name="-1" unicode="&#58962;" d="M0 896h808.421053v-1024H0zM916.210526 896h269.473685v-1024h-269.473685z"  horiz-adv-x="1185" />

    
    <glyph glyph-name="icon-test4" unicode="&#58964;" d="M0 896h107.789474v-1024H0zM215.578947 896h161.684211v-1024H215.578947zM485.052632 896h485.052631v-1024H485.052632zM1077.894737 896h107.789474v-1024h-107.789474z"  horiz-adv-x="1185" />

    
    <glyph glyph-name="icon-test5" unicode="&#58965;" d="M0 896h107.789474v-1024H0zM215.578947 896h107.789474v-1024H215.578947zM431.157895 896h107.789473v-1024H431.157895zM646.736842 896h323.368421v-1024h-323.368421zM1077.894737 896h107.789474v-1024h-107.789474z"  horiz-adv-x="1185" />

    
    <glyph glyph-name="icon-test6" unicode="&#58966;" d="M0 896h107.789474v-1024H0zM215.578947 896h107.789474v-1024H215.578947zM646.736842 896h107.789474v-1024h-107.789474zM431.157895 896h107.789473v-1024H431.157895zM862.315789 896h107.789474v-1024h-107.789474zM1077.894737 896h107.789474v-1024h-107.789474z"  horiz-adv-x="1185" />

    
    <glyph glyph-name="icon-test3" unicode="&#58971;" d="M269.473684 896h269.473684v-1024H269.473684zM1024 896h161.684211v-1024h-161.684211zM0 896h161.684211v-1024H0zM485.052632 896h431.157894v-1024H485.052632z"  horiz-adv-x="1185" />

    
    <glyph glyph-name="bianzu" unicode="&#58972;" d="M483.095273-28.113455c-111.895273 0-227.141818 42.821818-312.692364 128.372364-171.147636 171.147636-171.147636 454.190545 0 625.338182 171.147636 171.147636 454.190545 171.147636 625.338182 0s171.147636-454.190545 0-625.338182c-85.550545-85.597091-200.750545-128.372364-312.645818-128.372364z m0 835.956364c-98.769455 0-204.055273-39.470545-279.738182-115.153454a395.310545 395.310545 0 0 1 0-559.52291 395.310545 395.310545 0 0 1 559.476364 0 395.310545 395.310545 0 0 1 0 559.476364c-75.682909 75.729455-181.015273 115.246545-279.738182 115.246546zM1009.664-80.756364l-32.907636-32.907636-230.4 230.4 32.954181 32.861091z"  horiz-adv-x="1024" />

    
    <glyph glyph-name="bianzu1" unicode="&#58973;" d="M512-128C228.072727-128 0 100.072727 0 384S228.072727 896 512 896s512-228.072727 512-512-228.072727-512-512-512z m0 46.545455c256 0 465.454545 209.454545 465.454545 465.454545S768 849.454545 512 849.454545 46.545455 640 46.545455 384s209.454545-465.454545 465.454545-465.454545zM325.818182 477.090909c0 102.4 83.781818 186.181818 186.181818 186.181818s186.181818-83.781818 186.181818-186.181818v-9.309091l-46.545454 4.654546V477.090909c0 79.127273-60.509091 139.636364-139.636364 139.636364S372.363636 556.218182 372.363636 477.090909H325.818182z m325.818182-125.672727c-32.581818-32.581818-74.472727-55.854545-121.018182-60.509091l121.018182 60.509091zM465.454545 151.272727h46.545455v-46.545454h-46.545455zM539.927273 290.909091c-18.618182 0-27.927273-9.309091-27.927273-23.272727s-4.654545 0-9.309091 46.545454h41.890909v-23.272727zM512 174.545455h-46.545455v83.781818c0 41.890909 27.927273 74.472727 69.818182 79.127272 9.309091 0 18.618182 4.654545 27.927273 9.309091 51.2 18.618182 88.436364 69.818182 88.436364 130.327273h46.545454c0-79.127273-46.545455-144.290909-116.363636-172.218182-13.963636-4.654545-27.927273-9.309091-37.236364-9.309091-13.963636 0-27.927273-13.963636-27.927273-32.581818v-88.436363z"  horiz-adv-x="1024" />

    
    <glyph glyph-name="bianzu2" unicode="&#58974;" d="M902.095238-30.47619H121.904762V457.142857c0 214.552381 175.542857 390.095238 390.095238 390.095238s390.095238-175.542857 390.095238-390.095238v-487.619047zM170.666667 18.285714h682.666666V457.142857c0 190.171429-151.161905 341.333333-341.333333 341.333333S170.666667 647.314286 170.666667 457.142857v-438.857143zM414.47619 896h195.04762v-97.52381H414.47619zM73.142857 18.285714h877.714286v-48.761904H73.142857zM365.714286-79.238095h292.571428v-48.761905H365.714286z"  horiz-adv-x="1024" />

    
    <glyph glyph-name="tuodongdian" unicode="&#58977;" d="M259.30011441 674.18204728a80.60580274 80.60580274 0 1 1 161.21232895 0 80.60580274 80.60580274 0 1 1-161.21305314 0zM603.48755663 674.18204728a80.60580274 80.60580274 0 1 1 161.21305315 0 80.60580274 80.60580274 0 1 1-161.21305314 0zM259.30011441 384a80.60580274 80.60580274 0 1 1 161.21232895 0 80.60580274 80.60580274 0 1 1-161.21305314 0zM603.48755663 384a80.60580274 80.60580274 0 1 1 161.21305315 0 80.60580274 80.60580274 0 1 1-161.21305314 0zM259.30011441 93.81795272a80.60580274 80.60580274 0 1 1 161.21232895 0 80.60580274 80.60580274 0 1 1-161.21305314 0zM603.48755663 93.81795272a80.60580274 80.60580274 0 1 1 161.21305315 0 80.60580274 80.60580274 0 1 1-161.21305314 0z"  horiz-adv-x="1024" />

    
    <glyph glyph-name="xingzhuangjiehe" unicode="&#58980;" d="M512-128C228.072727-128 0 100.072727 0 384S228.072727 896 512 896s512-228.072727 512-512-228.072727-512-512-512z m-51.2 395.636364l-121.018182 107.054545-32.581818-37.236364 130.327273-111.70909 27.927272-23.272728 283.927273 307.2-32.581818 32.581818-256-274.618181z"  horiz-adv-x="1024" />

    
    <glyph glyph-name="icon-des-a" unicode="&#59003;" d="M911.59814-128L502.950698 727.397209 112.87814-127.523721 48.104186-97.51814 501.52186 896l474.373954-993.04186-64.297674-30.95814zM230.995349 249.213023h548.197209v-71.44186H230.995349z"  horiz-adv-x="1024" />

    
    <glyph glyph-name="icon-des-color" unicode="&#59004;" d="M89.359597-57.638113h845.280806v-70.361887H89.359597zM817.83967 536.216216a75.521759 75.521759 0 0 1 8.912506 35.180944 80.681631 80.681631 0 0 1-20.170408 54.413193L581.423729 873.953275a66.609253 66.609253 0 0 1-98.975722 0l-93.815849-103.197434L276.522217 896l-23.453962-25.799359 112.579019-124.306001-220.936326-244.390288a82.088869 82.088869 0 0 1 0-108.357307L369.868988 145.473202a66.609253 66.609253 0 0 1 46.907925-22.515804 65.671095 65.671095 0 0 1 46.907924 22.515804l321.319286 349.46404a371.510765 371.510765 0 0 1-55.351352-147.759963c0-69.892808 37.52634-127.120476 83.496107-127.120476s83.965186 57.227668 83.965185 127.120476c1.407238 61.918461-65.202016 165.584975-79.274393 189.038937z m-428.738433 182.940907l84.903344-93.81585 23.453962 25.799359-84.903344 93.81585 93.81585 103.197435a34.711864 34.711864 0 0 0 25.799359 12.19606 32.835547 32.835547 0 0 0 25.330279-12.19606l227.503436-248.142923a52.067797 52.067797 0 0 0 7.974347-14.072377L158.783326 454.127348a40.809895 40.809895 0 0 0 9.381585 19.701328z"  horiz-adv-x="1024" />

    
    <glyph glyph-name="icon-des-i" unicode="&#59005;" d="M367.805108-78.761493L596.042436 887.399607l73.430256-17.301375-228.237329-966.211395zM177.791749-52.557957h470.758349v-75.442043H177.791749zM375.449902 896h470.758349v-75.442043H375.449902z"  horiz-adv-x="1024" />

    
    <glyph glyph-name="icon-des-jz" unicode="&#59006;" d="M259.425934 896h504.203046v-70.881403H259.425934zM259.425934-57.118597h504.203046v-70.881403H259.425934zM21.264421 419.676973h981.471158v-70.881403H21.264421z"  horiz-adv-x="1024" />

    
    <glyph glyph-name="icon-des-left" unicode="&#59007;" d="M0 896h504.203046v-70.881403H0zM0-57.118597h504.203046v-70.881403H0zM0 419.676973h1024v-70.881403H0z"  horiz-adv-x="1024" />

    
    <glyph glyph-name="icon-des-lj" unicode="&#59008;" d="M274.448945-128a274.469748 274.469748 0 0 0-197.109548 464.691059l202.408192 190.221312L336.443077 469.157153 132.975156 278.405978a192.870633 192.870633 0 0 1-52.986437-137.234874 191.28104 191.28104 0 0 1 59.34481-136.70501 194.460227 194.460227 0 0 1 274.999612 4.76878l176.974702 184.922668 57.755217-52.986438-177.504566-185.452532a274.469748 274.469748 0 0 0-192.340769-83.718572zM741.789326 232.837641l-56.165624 56.165624 194.460227 196.04982a194.990091 194.990091 0 0 1-13.776474 273.410019 195.519955 195.519955 0 0 1-274.999612-14.306339L418.572056 552.875725l-59.34481 52.986438 170.616329 191.28104a274.469748 274.469748 0 1 0 407.995571-366.666149zM328.389139 251.276921l305.996678 312.249078 56.748475-55.63576-305.943692-312.249077z"  horiz-adv-x="1024" />

    
    <glyph glyph-name="icon-des-right" unicode="&#59009;" d="M518.615598 896h504.203045v-70.881403H518.615598zM518.615598-57.118597h504.203045v-70.881403H518.615598zM1.181357 419.676973h1021.164744v-70.881403H1.181357z"  horiz-adv-x="1024" />

    
    <glyph glyph-name="icon-des-sx" unicode="&#59011;" d="M511.291186 896h516.489155v-70.881403H511.291186zM511.291186-57.118597h516.489155v-70.881403H511.291186zM511.291186 419.676973h516.489155v-70.881403H511.291186zM309.042916 705.092755L170.115367 828.898939 31.66036 705.092755 0 740.533456 170.115367 892.219659l170.587909-151.686203-31.66036-35.440701zM146.960775 842.130134h47.254269v-918.150439h-47.254269zM170.115367-123.274573L0 28.411629l31.66036 35.440701 138.455007-123.806183 139.400092 123.806183 31.187817-35.440701-170.587909-151.686202z"  horiz-adv-x="1027" />

    
    <glyph glyph-name="icon-des-u" unicode="&#59012;" d="M509.128972 91.15514a319.641121 319.641121 0 0 0-234.945794 79.910281 311.506542 311.506542 0 0 0-77.996262 227.768224V896h71.775701v-497.166355a243.558879 243.558879 0 0 1 56.942056-177.046729 254.085981 254.085981 0 0 1 184.224299-58.856075c164.605607 0 242.123364 75.125234 243.080374 236.381309V896H823.028037v-497.166355c0-201.450467-109.57757-307.678505-313.899065-307.678505zM57.420561-56.224299h909.158878v-71.775701H57.420561z"  horiz-adv-x="1024" />

    
    <glyph glyph-name="icon-des-xpc" unicode="&#59013;" d="M200.337281-75.12648L0 59.725249 530.190431 896l455.003316-275.524396-435.600189-690.266225-28.619612 17.947892 416.682141 661.161535L540.862151 849.917575 46.567504 69.426812l172.687825-116.418759-18.918048-28.134533zM207.613453-55.238276h858.588347v-72.761724H207.613453zM532.615822 872.716248l-242.539081-392.913311 422.503079-270.188536 248.845097 405.040265L532.615822 872.716248z"  horiz-adv-x="1066" />

    
    <glyph glyph-name="icon-des-zy" unicode="&#59014;" d="M840.777475-128l-34.877384 30.692098 112.537693 126.953679-112.537693 126.488646 34.877384 30.692098 139.974569-157.180744-139.974569-157.645777zM87.891008 52.432334h846.357857v-46.503179H87.891008zM184.152589-128L44.17802 29.180745l140.4396 157.645776 34.412353-31.15713-112.537693-126.488646 112.537693-126.488647-34.877384-30.692098zM914.71753 896h69.754768v-548.27248h-69.754768zM39.527702 896h69.754768v-548.27248H39.527702zM477.122616 896h69.754768v-548.27248h-69.754768z"  horiz-adv-x="1024" />

    
    <glyph glyph-name="icon-des-s1" unicode="&#59018;" d="M19.51117 401.268506h984.97766v-67.279895H19.51117zM798.612352 778.035918l-39.022339-54.720982c-95.537451 63.243101-169.545335 97.331581-222.023653 101.368375-78.941743 6.279457-183.001314-14.353044-214.398598-84.772667a185.243977 185.243977 0 0 1 17.04424-189.729304 422.51774 422.51774 0 0 1 107.647832-83.875602H327.204555a230.994306 230.994306 0 0 0-89.706526 209.016207A213.501533 213.501533 0 0 0 403.00657 882.095488a381.70127 381.70127 0 0 0 287.509418-35.88261 1141.964082 1141.964082 0 0 0 108.096364-68.17696zM725.950066 333.091546a239.964958 239.964958 0 0 0 76.250547-108.993429 250.281209 250.281209 0 0 0-117.067017-301.862462 364.208498 364.208498 0 0 0-388.42926 13.455979 604.621989 604.621989 0 0 0-121.10381 109.890495l51.581252 44.853263a379.010074 379.010074 0 0 1 210.810338-142.184844 307.244853 307.244853 0 0 1 217.986859 36.779675 184.795445 184.795445 0 0 1 89.706527 162.817346c-6.727989 89.706527-65.037232 152.501095-174.479195 184.346912z"  horiz-adv-x="1024" />

    
    <glyph glyph-name="icon-des-change" unicode="&#59019;" d="M1138.858435 491.216644H0v45.850746h1028.631389L709.52872 863.58028l32.882858 32.41972 396.446857-404.783356zM419.14066-128L23.156943 276.783356h1138.858435v-46.313885H133.383989l319.102669-326.049751-33.345998-32.41972z"  horiz-adv-x="1162" />

    
    <glyph glyph-name="icon-des-copy" unicode="&#59020;" d="M951.69287-128H273.082267a70.201097 70.201097 0 0 0-70.201097 70.201097V606.771481a70.201097 70.201097 0 0 0 70.201097 70.201097h678.610603a70.201097 70.201097 0 0 0 70.201097-70.201097v-664.570384a70.201097 70.201097 0 0 0-70.201097-70.201097zM273.082267 630.171846a23.400366 23.400366 0 0 1-23.400366-23.400365v-664.570384a23.868373 23.868373 0 0 1 23.400366-23.400366h678.610603a23.400366 23.400366 0 0 1 23.400366 23.400366V606.771481a23.400366 23.400366 0 0 1-23.400366 23.400365zM126.595978 86.347349H72.30713A70.201097 70.201097 0 0 0 2.106033 156.548446V825.798903A70.201097 70.201097 0 0 0 72.30713 896h691.714808a70.201097 70.201097 0 0 0 70.201097-70.201097v-58.968921h-46.800732V825.798903a23.400366 23.400366 0 0 1-23.400365 23.400366H72.30713a23.400366 23.400366 0 0 1-23.400366-23.400366v-669.250457a23.400366 23.400366 0 0 1 23.400366-23.400366h54.288848z"  horiz-adv-x="1024" />

    
    <glyph glyph-name="icon-des-homepage" unicode="&#59021;" d="M1085.45284 321.85737L551.37726 832.712272 31.871518 322.312677l-31.871518 32.326825L550.921953 896l565.947097-540.90519-31.41621-33.23744zM885.117584-127.986341h-251.784992v244.044766a22.76537 22.76537 0 0 1-22.76537 22.76537h-112.916235a22.76537 22.76537 0 0 1-22.76537-22.76537v-244.044766H222.190011a68.29611 68.29611 0 0 0-69.662032 68.29611V499.882563h45.53074v-559.572794a22.76537 22.76537 0 0 1 22.76537-22.76537h208.530788v198.514026a68.29611 68.29611 0 0 0 68.29611 68.29611h112.916235a68.29611 68.29611 0 0 0 68.29611-68.29611v-198.514026h206.254252a22.76537 22.76537 0 0 1 22.76537 22.76537V499.882563h45.53074v-559.572794a68.29611 68.29611 0 0 0-68.29611-68.29611z"  horiz-adv-x="1116" />

    
    <glyph glyph-name="icon-des-Import" unicode="&#59022;" d="M896.555716-128H134.853835a123.986493 123.986493 0 0 0-123.492523 121.516643L0 767.073806A123.986493 123.986493 0 0 0 123.492523 891.060299h406.537385v-49.397009H123.492523A74.095514 74.095514 0 0 1 49.397009 767.073806l11.361312-773.557163a74.095514 74.095514 0 0 1 74.095514-72.613604h761.701881a74.095514 74.095514 0 0 1 74.095514 74.095514v363.561987h49.397009v-363.068017a123.492523 123.492523 0 0 0-123.492523-123.492523zM732.063676 267.670043H422.344428V570.47371h49.39701v-253.406657h260.322238v-49.39701zM443.78273 316.820068L994.559383 896l35.812831-34.083936-550.776652-579.130536z"  horiz-adv-x="1030" />

    
    <glyph glyph-name="icon-des-setup" unicode="&#59023;" d="M514.314963 156.093136a223.27177 223.27177 0 1 0 223.27177 223.27177 223.735953 223.735953 0 0 0-223.27177-223.27177z m0 399.66111a176.853523 176.853523 0 1 1 176.853523-176.38934 176.853523 176.853523 0 0 1-176.853523 176.38934zM525.919525-127.986539a71.019919 71.019919 0 0 0-34.813686 9.28365L94.694006 107.353976A70.091554 70.091554 0 0 0 59.416138 168.16188V593.353027a69.163189 69.163189 0 0 0 34.349503 59.879539l396.876016 232.091237a69.163189 69.163189 0 0 0 72.412466 0l368.096702-232.091237a69.163189 69.163189 0 0 0 33.421138-58.951174v-427.047877a70.091554 70.091554 0 0 0-32.956956-59.415357l-368.560884-225.592682a67.770641 67.770641 0 0 0-37.134598-10.212015z m-12.068745 974.783197l-396.411833-232.091238a23.209124 23.209124 0 0 1-11.604562-19.959846v-425.191147a24.137489 24.137489 0 0 1 11.604562-20.424028l396.876016-226.056866a24.137489 24.137489 0 0 1 23.673306 0l368.560885 225.592683a23.673306 23.673306 0 0 1 10.676197 19.959846V594.281392a22.280759 22.280759 0 0 1-10.676197 19.495664l-368.560885 232.091237a23.673306 23.673306 0 0 1-24.137489 0z"  horiz-adv-x="1024" />

    
    <glyph glyph-name="shanchu1" unicode="&#59024;" d="M409.6 896l-51.2-51.2H51.2v-102.4h921.6V844.8H665.6L614.4 896zM121.173 640l85.334-768H819.2l85.333 768z"  horiz-adv-x="1024" />

    
    <glyph glyph-name="icon-dash-NavigationContent" unicode="&#59028;" d="M866.443636-128H157.090909a93.090909 93.090909 0 0 0-93.090909 93.090909V802.909091a93.090909 93.090909 0 0 0 93.090909 93.090909h509.207273l293.236363-317.905455V-34.909091a93.090909 93.090909 0 0 0-93.090909-93.090909zM157.090909 826.181818a23.272727 23.272727 0 0 1-23.272727-23.272727v-837.818182a23.272727 23.272727 0 0 1 23.272727-23.272727h709.352727a23.272727 23.272727 0 0 1 23.272728 23.272727V550.632727L636.043636 826.181818zM605.323636 579.025455h314.181819v-69.818182h-314.181819zM605.323636 866.676364h69.818182v-357.934546h-69.818182zM415.883636 381.207273H253.905455a34.909091 34.909091 0 1 0 0 69.818182h161.978181a34.909091 34.909091 0 0 0 0-69.818182zM415.883636 125.207273H253.905455a34.909091 34.909091 0 1 0 0 69.818182h161.978181a34.909091 34.909091 0 0 0 0-69.818182zM735.650909 253.207273H253.905455a34.909091 34.909091 0 1 0 0 69.818182h481.745454a34.909091 34.909091 0 0 0 0-69.818182z"  horiz-adv-x="1024" />

    
    <glyph glyph-name="icon-dash-NavigationTemplate" unicode="&#59031;" d="M872.727273-128H151.272727A104.727273 104.727273 0 0 0 46.545455-23.272727V791.272727A104.727273 104.727273 0 0 0 151.272727 896h721.454546A104.727273 104.727273 0 0 0 977.454545 791.272727v-814.545454A104.727273 104.727273 0 0 0 872.727273-128zM151.272727 826.181818a35.374545 35.374545 0 0 1-34.909091-34.909091v-814.545454a35.374545 35.374545 0 0 1 34.909091-34.909091h721.454546a35.374545 35.374545 0 0 1 34.909091 34.909091V791.272727a35.374545 35.374545 0 0 1-34.909091 34.909091zM81.454545 628.363636h861.09091v-69.818181H81.454545zM314.181818 628.363636h69.818182v-735.418181h-69.818182z"  horiz-adv-x="1024" />

    
    <glyph glyph-name="icon-dash-Navigationform" unicode="&#59035;" d="M385.109995-128a46.73665 46.73665 0 0 0-17.759927 3.738932L249.106344-75.187586a46.73665 46.73665 0 0 1-34.585121 0l-87.864902-33.183021a46.73665 46.73665 0 0 0-61.225011 27.574623V802.5267A93.4733 93.4733 0 0 0 155.633044 896h712.733912a93.4733 93.4733 0 0 0 93.4733-93.4733v-866.964856a46.73665 46.73665 0 0 0-46.73665-46.73665h-6.543131l-9.814697 3.271565-86.462802 32.715655a46.73665 46.73665 0 0 1-37.38932 0l-93.4733-46.73665a46.73665 46.73665 0 0 0-40.660885 0l-98.146965 46.73665a46.73665 46.73665 0 0 1-39.726153 0l-99.549064-46.73665a43.932451 43.932451 0 0 0-18.227294-6.075764z m267.333638 68.702875z m19.629393 0zM229.944318-1.343679a114.504792 114.504792 0 0 0 46.73665-8.879963l109.831127-46.73665 90.669101 42.062985a117.308991 117.308991 0 0 0 98.614331 0l88.332269-41.128252 81.32177 40.660885a118.243724 118.243724 0 0 0 93.4733 4.206299l54.681881-20.564126V802.5267a23.368325 23.368325 0 0 1-23.368325 23.368325H155.633044a23.368325 23.368325 0 0 1-23.368325-23.368325v-832.847102l56.08398 21.498859a116.841625 116.841625 0 0 0 41.595619 7.477864z m-129.460521-41.128252zM774.893656 589.407576H415.488818a35.052487 35.052487 0 0 0 0 70.104975h359.404838a35.052487 35.052487 0 0 0 0-70.104975zM286.963031 589.407576h-34.117755a35.052487 35.052487 0 0 0 0 70.104975h34.117755a35.052487 35.052487 0 0 0 0-70.104975zM286.963031 396.385212h-34.117755a35.052487 35.052487 0 0 0 0 70.104975h34.117755a35.052487 35.052487 0 1 0 0-70.104975zM286.963031 203.830215h-34.117755a35.052487 35.052487 0 0 0 0 70.104974h34.117755a35.052487 35.052487 0 1 0 0-70.104974zM774.893656 203.830215H415.488818a35.052487 35.052487 0 0 0 0 70.104974h359.404838a35.052487 35.052487 0 0 0 0-70.104974zM774.893656 396.385212H415.488818a35.052487 35.052487 0 0 0 0 70.104975h359.404838a35.052487 35.052487 0 0 0 0-70.104975z"  horiz-adv-x="1024" />

    
    <glyph glyph-name="icon-des-pad" unicode="&#59036;" d="M777.6-128H246.4A150.4 150.4 0 0 0 96 22.4V745.6A150.4 150.4 0 0 0 246.4 896h531.2A150.4 150.4 0 0 0 928 745.6v-723.2A150.4 150.4 0 0 0 777.6-128zM246.4 851.2a105.6 105.6 0 0 1-105.6-105.6v-723.2a105.6 105.6 0 0 1 105.6-105.6h531.2a105.6 105.6 0 0 1 105.6 105.6V745.6A105.6 105.6 0 0 1 777.6 851.2zM832 64H192V768h640z m-595.2 44.8h550.4V723.2H236.8zM518.4-92.8a86.4 86.4 0 1 0 89.6 86.4 87.04 87.04 0 0 0-89.6-86.4z m0 128a41.6 41.6 0 1 1 41.6-41.6 41.6 41.6 0 0 1-41.6 41.6zM464 822.4h128v-32H464z"  horiz-adv-x="1024" />

    
    <glyph glyph-name="icon-des-pc" unicode="&#59037;" d="M873.6 64H150.4A150.4 150.4 0 0 0 0 214.4V745.6A150.4 150.4 0 0 0 150.4 896h723.2A150.4 150.4 0 0 0 1024 745.6v-531.2A150.4 150.4 0 0 0 873.6 64zM150.4 851.2A105.6 105.6 0 0 1 44.8 745.6v-531.2a105.6 105.6 0 0 1 105.6-105.6h723.2a105.6 105.6 0 0 1 105.6 105.6V745.6A105.6 105.6 0 0 1 873.6 851.2zM9.6 240.64h972.8v-44.8H9.6zM192-64h640v-64H192zM336-116.48l-32 40.96a165.12 165.12 0 0 1 54.4 169.6l51.2 7.04a218.88 218.88 0 0 0-73.6-217.6z m352 9.6a212.48 212.48 0 0 0-74.24 212.48l51.2-7.04A160 160 0 0 1 720-64z"  horiz-adv-x="1024" />

    
    <glyph glyph-name="icon-des-phone" unicode="&#59038;" d="M233.6 680.96h524.8v-44.8H233.6z m0-576h524.8v-44.8H233.6z m192 688.64h172.8v-44.8H425.6zM512-92.8a86.4 86.4 0 1 0 86.4 86.4 87.04 87.04 0 0 0-86.4-86.4z m0 128a41.6 41.6 0 1 1 41.6-41.6 41.6 41.6 0 0 1-41.6 41.6zM649.6-128H374.4A150.4 150.4 0 0 0 224 22.4V745.6A150.4 150.4 0 0 0 374.4 896h275.2A150.4 150.4 0 0 0 800 745.6v-723.2A150.4 150.4 0 0 0 649.6-128zM374.4 851.2a105.6 105.6 0 0 1-105.6-105.6v-723.2a105.6 105.6 0 0 1 105.6-105.6h275.2a105.6 105.6 0 0 1 105.6 105.6V745.6A105.6 105.6 0 0 1 649.6 851.2z"  horiz-adv-x="1024" />

    
    <glyph glyph-name="icon-logo" unicode="&#59039;" d="M857.601 505.925l-292.66-292.642 97.55-97.55L955.12 408.406c53.874 53.874 53.874 141.23 0 195.104L662.637 896l-97.544-97.598zM418.5 700.883l292.46-292.46 97.543 97.544-292.447 292.49c-53.874 53.874-141.23 53.874-195.105 0L28.444 505.925l97.549-97.544zM223.677 261.917l292.636 292.63-97.55 97.55L28.59 261.922l292.557-292.557c53.88-53.837 141.2-53.819 195.062 0.037zM955.126 359.625L662.65 67.105 369.995 359.74l-97.544-97.55L662.637-128l292.556 292.557c53.807 53.892 53.789 141.212-0.067 195.068z"  horiz-adv-x="1024" />

    
    <glyph glyph-name="icon-circular" unicode="&#59040;" d="M512-128A512 512 0 1 0 1024 384 512.451101 512.451101 0 0 0 512-128z m0 992.422907A480.422907 480.422907 0 1 1 992.422907 384 481.32511 481.32511 0 0 1 512 864.422907z"  horiz-adv-x="1024" />

    
    <glyph glyph-name="icon-des-nest" unicode="&#59041;" d="M134.857-128H68.749V253.438a349.046 349.046 0 0 0 115.027 280.956C315.99 644.793 544.72 671.897 887.817 613.722l-10.577-66.107c-318.636 51.564-536.79 29.087-649.833-66.107a283.6 283.6 0 0 1-92.55-230.714zM633.966 338.056l-36.36 54.868 268.396 180.473L683.546 860.302 739.737 896l216.17-341.774-321.941-216.17z"  horiz-adv-x="1024" />

    
    <glyph glyph-name="icon-des-up" unicode="&#59042;" d="M956.55-128h-68.13V280.782a237.094 237.094 0 0 1-81.075 195.535c-106.283 89.25-323.62 103.558-643.832 43.603l-12.945 68.13c346.784 68.131 575.702 46.33 701.062-57.91a303.862 303.862 0 0 0 104.92-249.358zM398.563 320.98L66.768 543.765 289.554 896l57.911-36.79-188.04-295.686 277.29-185.996-38.152-56.549z"  horiz-adv-x="1024" />

    
    <glyph glyph-name="icon-Prohibit" unicode="&#59043;" d="M512-128A512 512 0 1 0 1024 384 512.445217 512.445217 0 0 0 512-128z m0 979.478261A467.478261 467.478261 0 1 1 979.478261 384 467.923478 467.923478 0 0 1 512 851.478261zM191.532522 23.952696L783.62713 782.291478l35.083131-27.380869L226.615652-3.472696z"  horiz-adv-x="1024" />

    
    <glyph glyph-name="icon-Page" unicode="&#59044;" d="M702.158273-128H123.395683a69.064748 69.064748 0 0 0-69.064748 69.064748V826.935252A69.064748 69.064748 0 0 0 123.395683 896h777.208634a69.064748 69.064748 0 0 0 69.064748-69.064748v-679.597123zM123.395683 849.956835a23.021583 23.021583 0 0 1-23.021582-23.021583v-885.870504a23.482014 23.482014 0 0 1 23.021582-23.021583h559.424461l240.805755 248.172662V826.935252a23.021583 23.021583 0 0 1-23.021582 23.021583zM619.280576-118.330935l-4.143885 254.618705a70.446043 70.446043 0 0 0 19.798561 49.266187 66.302158 66.302158 0 0 0 48.345324 20.719424h268.892086v-46.043165h-267.971223a20.719424 20.719424 0 0 1-16.115108-6.906475 21.640288 21.640288 0 0 1-6.906475-16.115108l4.143885-256z"  horiz-adv-x="1024" />

    
    <glyph glyph-name="icon-product" unicode="&#59045;" d="M394.196364 411.151515H78.56a72.727273 72.727273 0 0 0-72.727273 72.727273V797.090909A72.727273 72.727273 0 0 0 78.56 867.393939h315.636364a72.727273 72.727273 0 0 0 72.727272-72.727272V483.878788a72.727273 72.727273 0 0 0-72.727272-72.727273zM78.56 818.909091a24.242424 24.242424 0 0 1-24.242424-24.242424V483.878788a24.727273 24.727273 0 0 1 24.242424-24.242424h315.636364a24.242424 24.242424 0 0 1 24.242424 24.242424V797.090909a24.242424 24.242424 0 0 1-24.242424 24.242424zM388.378182-128H72.741818A72.727273 72.727273 0 0 0 0.014545-53.818182v311.757576a72.727273 72.727273 0 0 0 72.727273 72.727273h315.636364a72.727273 72.727273 0 0 0 72.727273-72.727273v-311.757576a72.727273 72.727273 0 0 0-72.727273-74.181818zM72.741818 282.181818a24.242424 24.242424 0 0 1-24.242424-24.242424v-311.757576a24.242424 24.242424 0 0 1 24.242424-24.242424h315.636364a24.242424 24.242424 0 0 1 23.757576 24.242424v311.757576a24.242424 24.242424 0 0 1-24.242425 24.242424zM921.711515-128H606.075152a72.727273 72.727273 0 0 0-72.727273 74.181818v311.757576a72.727273 72.727273 0 0 0 72.727273 72.727273h315.636363a72.727273 72.727273 0 0 0 72.727273-72.727273v-311.757576a72.727273 72.727273 0 0 0-72.727273-74.181818z m-315.636363 410.181818a24.242424 24.242424 0 0 1-24.242425-24.242424v-311.757576a24.242424 24.242424 0 0 1 24.242425-24.242424h315.636363a24.242424 24.242424 0 0 1 23.757576 24.242424v311.757576a24.242424 24.242424 0 0 1-24.242424 24.242424zM807.772121 402.424242a48.484848 48.484848 0 0 0-34.424242 14.060606L573.590303 614.787879a48.484848 48.484848 0 0 0 0 68.848485L773.347879 881.939394a48.484848 48.484848 0 0 0 68.363636 0l200.727273-198.30303a48.484848 48.484848 0 0 0 14.545454-34.424243 48.484848 48.484848 0 0 0-14.545454-34.424242l-200.727273-198.303031a48.484848 48.484848 0 0 0-33.939394-14.060606zM790.802424 864.969697l16.969697-17.454545-201.696969-198.303031 200.242424-198.30303 201.212121 198.30303z"  horiz-adv-x="1056" />

    
    <glyph glyph-name="icon-email" unicode="&#59047;" d="M1397.76-128H138.24A139.264 139.264 0 0 0 0 10.24v747.52A139.264 139.264 0 0 0 138.24 896h1259.52A139.264 139.264 0 0 0 1536 757.76v-747.52A139.264 139.264 0 0 0 1397.76-128zM138.24 824.32a66.56 66.56 0 0 1-66.56-66.56v-747.52a66.56 66.56 0 0 1 66.56-66.56h1259.52a66.56 66.56 0 0 1 66.56 66.56v747.52a66.56 66.56 0 0 1-66.56 66.56zM768 295.936a131.072 131.072 0 0 0-76.8 23.552L31.744 760.832 70.656 820.224l660.48-441.344a64.512 64.512 0 0 1 73.728 0L1458.176 820.224l39.936-59.392-653.312-441.344a141.312 141.312 0 0 0-76.8-23.552z"  horiz-adv-x="1536" />

    
    <glyph glyph-name="icon-file" unicode="&#59048;" d="M1124.695915-128H104.568835A105.343419 105.343419 0 0 0 0-23.431165V718.620272h1124.695915a105.343419 105.343419 0 0 0 104.568835-104.568835v-637.482602a105.343419 105.343419 0 0 0-104.568835-104.568835zM54.220877 664.399395v-687.83056a50.347958 50.347958 0 0 1 50.347958-50.347958h1020.12708a50.347958 50.347958 0 0 1 50.347958 50.347958V614.051437a50.347958 50.347958 0 0 1-50.347958 50.347958zM54.220877 655.104387H0V791.431165A105.343419 105.343419 0 0 0 104.568835 896h464.750378a106.118003 106.118003 0 0 0 89.85174-51.897126l82.1059-138.650529-46.475038-27.885023-81.331316 139.425114A51.122542 51.122542 0 0 1 569.319213 841.779123h-464.750378a51.122542 51.122542 0 0 1-50.347958-50.347958z"  horiz-adv-x="1230" />

    
    <glyph glyph-name="icon-Popup" unicode="&#59049;" d="M778.622407-128H81.261411a79.66805 79.66805 0 0 0-79.66805 79.66805V645.842324a79.66805 79.66805 0 0 0 79.66805 79.136929h32.92946v-53.112033h-32.92946a26.556017 26.556017 0 0 1-26.556017-26.556017v-693.643153a26.556017 26.556017 0 0 1 26.556017-26.556017h697.360996a26.556017 26.556017 0 0 1 26.556016 26.556017v46.738589h53.112033v-46.738589a79.66805 79.66805 0 0 0-79.668049-79.66805zM995.319502 71.170124H260.780083a79.66805 79.66805 0 0 0-79.66805 79.66805V816.33195A80.19917 80.19917 0 0 0 260.780083 896h734.539419a80.19917 80.19917 0 0 0 79.66805-79.66805v-665.493776a79.66805 79.66805 0 0 0-79.66805-79.66805zM260.780083 842.887967a27.087137 27.087137 0 0 1-26.556017-26.556017v-665.493776a26.556017 26.556017 0 0 1 26.556017-26.556016h734.539419a26.556017 26.556017 0 0 1 26.556017 26.556016V816.33195a27.087137 27.087137 0 0 1-26.556017 26.556017zM395.153527 544.39834h465.792531v-53.112033H395.153527zM395.153527 406.838174h465.792531v-53.112033H395.153527zM807.568465 724.235685l26.290456 26.290456 95.07054-95.070539-26.343569-26.237345zM808.365145 655.083817l95.07054 95.07054 26.290456-26.343569-95.070539-95.017427z"  horiz-adv-x="1074" />

    
    <glyph glyph-name="icon-des-theme" unicode="&#59051;" d="M512-128a511.993 511.993 0 1 0 511.174 560.325 106.904 106.904 0 0 0 0-22.937v-25.395a245.757 245.757 0 0 0-221.181-226.915H581.221a48.742 48.742 0 0 1-26.214-90.111 99.122 99.122 0 0 0 57.753-92.568A101.17 101.17 0 0 0 512-128z m0 983.027a471.034 471.034 0 0 1 0-942.068 60.21 60.21 0 0 1 23.756 115.097 90.93 90.93 0 0 0-44.236 77.003 90.11 90.11 0 0 0 89.701 90.111h199.883a204.797 204.797 0 0 1 201.52 188.823v25.395a72.908 72.908 0 0 1 0 16.384A475.54 475.54 0 0 1 512 855.027z m298.185-507.488a108.952 108.952 0 1 0 108.952 108.952A109.362 109.362 0 0 0 810.185 347.54z m0 176.945a67.993 67.993 0 1 1 67.993-67.993 67.993 67.993 0 0 1-67.993 67.993zM213.815 347.54a108.952 108.952 0 1 0 109.362 108.952A108.952 108.952 0 0 0 213.815 347.54z m0 176.945a67.993 67.993 0 1 1 68.402-67.993 67.993 67.993 0 0 1-68.402 67.993z m434.99 48.332a109.362 109.362 0 1 0 108.952 109.362 109.362 109.362 0 0 0-108.952-109.362z m0 177.355a68.402 68.402 0 1 1 67.992-67.993 67.993 67.993 0 0 1-67.992 67.993z m-273.61-177.355a109.362 109.362 0 1 0 108.953 109.362 109.771 109.771 0 0 0-108.953-109.362z m0 177.355a68.402 68.402 0 1 1 67.993-67.993 67.993 67.993 0 0 1-67.993 67.993z"  horiz-adv-x="1024" />

    
    <glyph glyph-name="icon-dash-themefont" unicode="&#59054;" d="M845.903542 41.57405L508.503628 742.159624 186.837388 42.011097l-59.438327 27.533931L507.192488 896l397.712335-826.017926-59.001281-28.408024zM282.11353 357.558685h455.839522v-65.556978H282.11353zM9.3965-62.443022h1005.207v-65.556978H9.3965z"  horiz-adv-x="1024" />

    
    <glyph glyph-name="icon-des-lock" unicode="&#59057;" d="M944.355556-128h-864.711112A68.266667 68.266667 0 0 0 11.377778-59.733333V504.604444a68.266667 68.266667 0 0 0 68.266666 68.266667h864.711112A68.266667 68.266667 0 0 0 1012.622222 504.604444V-59.733333a68.266667 68.266667 0 0 0-68.266666-68.266667zM79.644444 527.36a22.755556 22.755556 0 0 1-22.755555-22.755556V-59.733333a22.755556 22.755556 0 0 1 22.755555-22.755556h864.711112a22.755556 22.755556 0 0 1 22.755555 22.755556V504.604444a22.755556 22.755556 0 0 1-22.755555 22.755556zM218.908444 552.391111l-45.511111 5.006222C195.697778 750.364444 342.243556 896 515.185778 896s318.577778-143.36 340.878222-333.596444l-45.511111-5.461334C789.162667 724.423111 662.186667 850.488889 514.730667 850.488889S238.933333 722.147556 218.908444 552.391111zM489.244444 337.123556h45.511112v-223.459556h-45.511112z"  horiz-adv-x="1024" />

    
    <glyph glyph-name="icon-add" unicode="&#59058;" d="M0 431.143469h1024v-73.09065H0zM464.856531 896h73.09065v-1024h-73.09065z"  horiz-adv-x="1024" />

    
    <glyph glyph-name="icon-picword" unicode="&#59059;" d="M954.181818-128h-884.363636A69.818182 69.818182 0 0 0 0-58.181818v884.363636A69.818182 69.818182 0 0 0 69.818182 896h884.363636A69.818182 69.818182 0 0 0 1024 826.181818v-884.363636a69.818182 69.818182 0 0 0-69.818182-69.818182zM69.818182 849.454545a23.272727 23.272727 0 0 1-23.272727-23.272727v-884.363636a23.272727 23.272727 0 0 1 23.272727-23.272727h884.363636a23.272727 23.272727 0 0 1 23.272727 23.272727v884.363636a23.272727 23.272727 0 0 1-23.272727 23.272727zM877.847273 310.923636H146.152727V749.847273h731.694546z m-698.181818 32.581819h665.6v372.363636H178.734545zM850.385455 379.810909L651.170909 500.363636l-108.916364-109.381818-175.476363 172.218182-190.370909-123.810909-17.687273 27.461818 212.247273 138.24 170.821818-168.029091 104.261818 104.261818 221.090909-133.585454-16.756363-27.927273zM154.530909 205.265455h711.68v-32.581819H154.530909zM154.530909 107.52h711.68v-32.581818H154.530909z"  horiz-adv-x="1024" />

    
    <glyph glyph-name="icon-editext" unicode="&#59060;" d="M0 896h760.857562v-50.122369H0zM587.935389 381.24327h491.199217v-50.122369h-491.199217zM355.367597 896h50.122369v-1024h-50.122369zM796.444444 335.631914h50.12237v-463.631914h-50.12237z"  horiz-adv-x="1079" />

    
    <glyph glyph-name="icon-dash-edit" unicode="&#59061;" d="M909.93 657.358L432.064 180.075 193.422 418.133 671.29 896zM114.07 338.781L352.71 100.139H114.07zM84.896-69.652h854.208V-128H84.896z"  horiz-adv-x="1024" />

    
    <glyph glyph-name="icon-des-picture" unicode="&#58983;" d="M56.888889 896h1137.777778c34.133333 0 56.888889-22.755556 56.888889-56.888889v-910.222222c0-34.133333-22.755556-56.888889-56.888889-56.888889H56.888889c-34.133333 0-56.888889 22.755556-56.888889 56.888889V839.111111c0 34.133333 22.755556 56.888889 56.888889 56.888889z m28.444444-56.888889c-17.066667 0-28.444444-11.377778-28.444444-28.444444v-853.333334c0-17.066667 11.377778-28.444444 28.444444-28.444444h1080.888889c17.066667 0 28.444444 11.377778 28.444445 28.444444v853.333334c0 17.066667-11.377778 28.444444-28.444445 28.444444h-1080.888889zM876.088889-128H56.888889c-34.133333 0-56.888889 22.755556-56.888889 56.888889v227.555555l381.155556 324.266667 381.155555-403.911111 489.244445 227.555556V-71.111111c0-34.133333-22.755556-56.888889-56.888889-56.888889h-318.577778z m-51.2 56.888889l-56.888889 62.577778-392.533333 409.6L56.888889 128V-14.222222c0-34.133333 22.755556-56.888889 56.888889-56.888889h711.111111z m79.644444 0H1137.777778c34.133333 0 56.888889 22.755556 56.888889 56.888889v227.555555l-392.533334-176.355555 102.4-108.088889zM881.777778 440.888889C802.133333 440.888889 739.555556 503.466667 739.555556 583.111111S802.133333 725.333333 881.777778 725.333333 1024 662.755556 1024 583.111111 961.422222 440.888889 881.777778 440.888889z m0 56.888889c45.511111 0 85.333333 39.822222 85.333333 85.333333S927.288889 668.444444 881.777778 668.444444 796.444444 628.622222 796.444444 583.111111 836.266667 497.777778 881.777778 497.777778z"  horiz-adv-x="1251" />

    
    <glyph glyph-name="icon-des-containers" unicode="&#58984;" d="M1251.555556-128H0V497.777778l324.266667 398.222222h608.711111L1251.555556 497.777778v-625.777778zM56.888889-71.11111100000005h1137.777778V475.022222L904.533333 839.111111H352.711111L56.888889 475.022222V-71.11111100000005zM1251.555556-128H0V497.777778h312.888889l170.666667-284.444445h244.622222l210.488889 284.444445H1251.555556v-625.777778zM56.888889-71.11111100000005h1137.777778V440.888889h-221.866667l-210.488889-284.444445H455.111111L284.444444 440.888889H56.888889v-512z"  horiz-adv-x="1251" />

    
    <glyph glyph-name="icon-des-Wrongnumber" unicode="&#58985;" d="M512-128C228.072727-128 0 100.072727 0 384S228.072727 896 512 896s512-228.072727 512-512-228.072727-512-512-512z m0 544.581818L363.054545 560.872727l-32.581818-32.581818 148.945455-148.945454-148.945455-148.945455 32.581818-32.581818 148.945455 148.945454 148.945455-148.945454 32.581818 32.581818-148.945455 153.6 148.945455 148.945455-32.581818 32.581818-148.945455-148.945455z"  horiz-adv-x="1024" />

    
    <glyph glyph-name="icon-des-right1" unicode="&#58986;" d="M512-128C228.072727-128 0 100.072727 0 384S228.072727 896 512 896s512-228.072727 512-512-228.072727-512-512-512z m0 46.545455c256 0 465.454545 209.454545 465.454545 465.454545S768 849.454545 512 849.454545 46.545455 640 46.545455 384s209.454545-465.454545 465.454545-465.454545zM465.454545 183.854545l-32.581818 32.581819 153.6 167.563636-153.6 162.909091 32.581818 32.581818 186.181819-195.490909z"  horiz-adv-x="1024" />

    
    <glyph glyph-name="icon-des-Arrow" unicode="&#58987;" d="M298.913295-122.080925l-47.352601 41.433526 455.768786 467.606937L251.560694 860.485549l47.352601 35.514451 491.283237-509.040462z"  horiz-adv-x="1024" />

    
    <glyph glyph-name="icon-des-Arrow1" unicode="&#58988;" d="M556.393064-122.080925l-47.352602 41.433526 455.768787 467.606937-455.768787 473.526011 47.352602 35.514451 491.283237-509.040462zM82.867052-122.080925l-47.352601 41.433526 455.768786 467.606937L35.514451 860.485549l47.352601 35.514451 491.283237-509.040462z"  horiz-adv-x="1066" />

    
    <glyph glyph-name="icon-dash-Arrow" unicode="&#59062;" d="M0 441.404304h1091.261608v-115.96829H0zM669.137033-128l-82.337486 81.177803 423.284258 427.92299L540.412231 810.183465 618.110985 896l558.967158-511.420159-507.94111-512.579841z"  horiz-adv-x="1177" />

    
    <glyph glyph-name="icon-Arrow" unicode="&#58992;" d="M395.636364-104.727273h-46.545455V849.454545c0 18.618182 13.963636 32.581818 32.581818 32.581819 9.309091 0 18.618182-4.654545 23.272728-9.309091l265.30909-283.927273-32.581818-32.581818-237.381818 256v-916.945455zM372.363636 840.145455z"  horiz-adv-x="1024" />

    
    <glyph glyph-name="icon-Arrow1" unicode="&#58993;" d="M642.327273-114.036364c-9.309091 0-18.618182 4.654545-23.272728 9.309091L353.745455 179.2l32.581818 32.581818 237.381818-256V872.727273h46.545454V-81.454545c4.654545-18.618182-9.309091-32.581818-27.927272-32.581819z"  horiz-adv-x="1024" />

    
    <glyph glyph-name="icon-des-Telephone" unicode="&#59063;" d="M852.893471-128l-14.515464 3.958763C367.725086 9.237113 93.690722 296.907216 25.072165 730.611684L22.872852 743.367698 223.890034 896l192.659794-263.917526-6.158075-12.316151a1011.683849 1011.683849 0 0 0-96.76976-123.161512c54.542955-125.360825 160.989691-234.886598 317.580756-322.859107l145.154639 103.807561 224.76976-211.573884-9.676976-14.955326c-3.958763-6.158076-21.553265-30.790378-128-167.147766zM72.57732 724.453608c68.618557-403.793814 326.378007-673.429553 765.800687-801.869416 61.580756 79.175258 91.931271 118.323024 106.006873 137.237114l-171.106529 160.549828-138.996564-99.408935-12.316151 6.597938c-175.945017 98.089347-296.027491 219.931271-351.890035 366.405499l-4.838488 12.316151 8.357389 10.116838c57.621993 69.058419 82.254296 100.28866 92.371134 114.364262L215.092784 833.539519z"  horiz-adv-x="1024" />

    
    <glyph glyph-name="icon-des-goback" unicode="&#59064;" d="M485.546667 616.533333V896L0 410.026667l485.546667-484.266667v295.68q564.48-31.573333 732.586666-349.44-93.866667 597.333333-732.586666 744.533333z"  horiz-adv-x="1218" />

    
    <glyph glyph-name="icon-see" unicode="&#58997;" d="M821.806545 146.013091l40.308364 23.272727 134.981818-233.797818-40.308363-23.272727zM699.624727 97.000727c-112.593455-0.512-222.533818 59.578182-283.042909 164.398546-44.218182 76.613818-55.575273 161.419636-29.370182 246.411636s78.382545 152.762182 148.619637 198.702546c76.613818 44.218182 161.419636 55.528727 246.411636 29.323636 82.618182-22.109091 152.762182-78.382545 194.653091-150.946909 44.218182-76.567273 55.528727-161.373091 29.370182-246.365091-22.155636-82.664727-78.429091-152.762182-150.993455-194.653091a266.612364 266.612364 0 0 0-155.648-46.871273z m-0.930909 606.766546c-47.941818-0.791273-95.232-11.962182-139.589818-37.562182-133.026909-76.8-179.013818-248.506182-102.213818-381.533091 76.8-133.026909 248.459636-179.013818 381.486545-102.213818 64.512 37.236364 111.010909 96.349091 127.394909 170.356363s12.101818 146.618182-25.134545 211.130182c-51.2 88.715636-146.152727 141.405091-241.989818 139.822546zM0 896h1024v-46.545455H0zM0 477.090909h297.890909v-46.545454H0zM0 11.636364h377.018182v-46.545455H0z"  horiz-adv-x="1024" />

    
    <glyph glyph-name="icon-des-information" unicode="&#58998;" d="M905.846154-108.307692H118.153846C63.015385-108.307692 19.692308-64.984615 19.692308-9.846154V777.846154C19.692308 832.984615 63.015385 876.307692 118.153846 876.307692h787.692308c55.138462 0 98.461538-43.323077 98.461538-98.461538v-787.692308c0-55.138462-43.323077-98.461538-98.461538-98.461538zM118.153846 836.923077c-31.507692 0-59.076923-27.569231-59.076923-59.076923v-787.692308c0-31.507692 27.569231-59.076923 59.076923-59.076923h787.692308c31.507692 0 59.076923 27.569231 59.076923 59.076923V777.846154c0 31.507692-27.569231 59.076923-59.076923 59.076923H118.153846zM173.292308 710.892308h673.476923v-39.384616H173.292308zM173.292308 561.230769h673.476923v-39.384615H173.292308zM173.292308 411.569231h425.353846v-39.384616H173.292308z"  horiz-adv-x="1024" />

    
    <glyph glyph-name="icon-des-Arrow2" unicode="&#58999;" d="M512-96C249.6-96 32 121.6 32 384S249.6 864 512 864s480-217.6 480-480-217.6-480-480-480z m0 896C281.6 800 96 614.4 96 384s185.6-416 416-416 416 185.6 416 416S742.4 800 512 800zM320 403.2h364.8v-64H320zM550.4 204.8l-44.8 44.8 121.6 121.6-121.6 115.2 44.8 51.2 166.4-166.4z"  horiz-adv-x="1024" />

    
    <glyph glyph-name="icon-des-Arrowleft" unicode="&#59000;" d="M512-96C249.6-96 32 121.6 32 384S249.6 864 512 864s480-217.6 480-480-217.6-480-480-480z m0 896C281.6 800 96 614.4 96 384s185.6-416 416-416 416 185.6 416 416S742.4 800 512 800zM704 403.2H339.2v-64H704zM473.6 204.8L307.2 371.2l166.4 166.4 44.8-51.2-121.6-115.2 121.6-121.6z"  horiz-adv-x="1024" />

    
    <glyph glyph-name="icon-exclamationmark" unicode="&#59001;" d="M512 384m-512 0a512 512 0 1 1 1024 0 512 512 0 1 1-1024 0ZM479.418182 616.727273h65.163636c9.309091 0 13.963636-4.654545 13.963637-13.963637l-13.963637-297.890909c0-9.309091-4.654545-13.963636-13.963636-13.963636h-32.581818c-9.309091 0-13.963636 4.654545-13.963637 13.963636L465.454545 602.763636c0 9.309091 4.654545 13.963636 13.963637 13.963637z m32.581818-465.454546c-27.927273 0-46.545455 18.618182-46.545455 46.545455s18.618182 46.545455 46.545455 46.545454 46.545455-18.618182 46.545455-46.545454-18.618182-46.545455-46.545455-46.545455z"  horiz-adv-x="1024" />

    
    <glyph glyph-name="icon-des-Article" unicode="&#59015;" d="M889.263158-128H134.736842c-32.336842 0-53.894737 21.557895-53.894737 53.894737V842.105263c0 32.336842 21.557895 53.894737 53.894737 53.894737h754.526316c32.336842 0 53.894737-21.557895 53.894737-53.894737v-916.210526c0-32.336842-21.557895-53.894737-53.894737-53.894737zM134.736842 842.105263v-916.210526h754.526316V842.105263H134.736842z m0 26.947369V842.105263 869.052632zM296.421053 626.526316h431.157894v-53.894737H296.421053zM296.421053 464.842105h215.578947v-53.894737H296.421053z"  horiz-adv-x="1024" />

    
    <glyph glyph-name="icon-des-Navigation" unicode="&#59017;" d="M970.105263-128H53.894737c-32.336842 0-53.894737 21.557895-53.894737 53.894737V842.105263c0 32.336842 21.557895 53.894737 53.894737 53.894737h916.210526c32.336842 0 53.894737-21.557895 53.894737-53.894737v-916.210526c0-32.336842-21.557895-53.894737-53.894737-53.894737zM53.894737 842.105263v-916.210526h916.210526V842.105263H53.894737z m0 26.947369V842.105263 869.052632zM485.052632 136.084211c-5.389474 0-10.778947 0-16.168421 5.389473l-10.778948 5.389474-5.389474 16.168421-10.778947 161.68421-156.294737 37.726316c-16.168421 5.389474-26.947368 21.557895-21.557894 37.726316l5.389473 16.168421 16.168421 10.778947L700.631579 578.021053l16.168421-5.389474c5.389474-5.389474 16.168421-10.778947 16.168421-16.168421l5.389474-10.778947-5.389474-16.168422-215.578947-377.263157c-10.778947-10.778947-21.557895-16.168421-32.336842-16.168421zM366.484211 400.168421l102.4-26.947368c16.168421-5.389474 26.947368-16.168421 26.947368-26.947369l5.389474-102.4 150.905263 264.084211-285.642105-107.789474z m91.621052-80.842105z m-16.168421 21.557895z"  horiz-adv-x="1024" />

    
    <glyph glyph-name="icon-des-placeholder" unicode="&#59025;" d="M1077.894737 842.105263h53.89473699v-970.105263h-53.89473699zM970.105263 896h269.473684v-53.894737h-269.473684zM970.105263-74.10526300000004h269.473684v-53.894737h-269.473684zM970.105263 114.52631599999995H107.78947399c-43.115789 0-80.842105 37.726316-80.842106 80.842105V572.631579c0 43.115789 37.726316 80.842105 80.842106 80.842105h862.31578901v-53.894737H107.78947399c-16.168421 0-26.94736799-10.778947-26.94736899-26.947368v-377.263158c0-16.168421 10.778947-26.94736799 26.94736899-26.947368h862.31578901v-53.894737zM1347.368421 114.52631599999995h-107.789474v53.894737h107.789474c16.168421 0 26.94736799 10.778947 26.947368 26.947368V572.631579c0 16.168421-10.778947 26.94736799-26.947368 26.947368h-107.789474v53.894737h107.789474c43.115789 0 80.842105-37.726316 80.84210501-80.842105v-377.263158c0-43.115789-37.726316-80.842105-80.84210501-80.842105z"  horiz-adv-x="1455" />

    
    <glyph glyph-name="icon-des-product" unicode="&#59034;" d="M86.231579-128c-32.336842 0-53.894737 21.557895-53.894737 53.894737L75.452632 847.494737c5.389474 26.947368 26.947368 48.505263 53.894736 48.505263H889.263158c26.947368 0 53.894737-21.557895 53.894737-48.505263l48.505263-916.210526c0-26.947368-21.557895-53.894737-48.505263-59.284211H86.231579zM129.347368 869.052632V842.105263l-43.115789-916.210526H943.157895l-48.505263 916.210526H129.347368V869.052632zM522.778947 443.284211c-80.842105 0-145.515789 64.673684-145.515789 145.515789V626.526316h53.894737v-43.11579c0-48.505263 37.726316-91.621053 91.621052-91.621052s91.621053 37.726316 91.621053 91.621052V626.526316h53.894737v-43.11579c-5.389474-75.452632-70.063158-140.126316-145.51579-140.126315z"  horiz-adv-x="1024" />

    
    <glyph glyph-name="icon-des-navigation" unicode="&#59065;" d="M1088-128h-981.333333A106.666667 106.666667 0 0 0 0-21.333333v810.666666A106.666667 106.666667 0 0 0 106.666667 896h981.333333A106.666667 106.666667 0 0 0 1194.666667 789.333333v-810.666666a106.666667 106.666667 0 0 0-106.666667-106.666667zM106.666667 853.333333A64 64 0 0 1 42.666667 789.333333v-810.666666A64 64 0 0 1 106.666667-85.333333h981.333333a64 64 0 0 1 64 64v810.666666A64 64 0 0 1 1088 853.333333zM277.333333 874.666667h42.666667v-981.333334h-42.666667zM874.666667 874.666667h42.666666v-981.333334h-42.666666z"  horiz-adv-x="1194" />

    
    <glyph glyph-name="icon-des-upper" unicode="&#59066;" d="M1282.33830755 61.08773654000004L804.17316264 554.1335394299999a26.78518475 26.78518475 0 0 1-17.85678984 6.94430745 25.79314039 25.79314039 0 0 1-17.85678983-6.94430745l-474.19696932-496.02193474-108.13278212 99.20438721 474.19696995 496.02193473A181.54402831 181.54402831 0 0 0 793.26067961 709.88442737a176.58380898 176.58380898 0 0 0 122.02139638-52.57832515l474.19696994-496.02193536z"  horiz-adv-x="1899" />

    
    <glyph glyph-name="icon-des-lower" unicode="&#59067;" d="M770.80471748 78.47962940000002a162.57047245 162.57047245 0 0 0-113.05187997 45.78134021L206.4796294 591.41749914 308.31975313 689.5203706l445.66732941-467.15653013a25.2264524 25.2264524 0 0 1 34.56958338 0l446.60164233 467.15653013 100.90581081-93.43130627-446.60164292-467.15652953a168.17635056 168.17635056 0 0 0-118.65775866-50.4529054z"  horiz-adv-x="1892" />

    
    <glyph glyph-name="icon-des-delete" unicode="&#59068;" d="M0 814.933333h1024v-128H0V814.933333zM853.333333-128H170.666667a85.333333 85.333333 0 0 0-85.333334 85.333333V815.786667h853.333334v-858.453334a85.333333 85.333333 0 0 0-85.333334-85.333333z m-640 128h597.333334V687.786667h-597.333334zM426.666667 896h170.666666a85.333333 85.333333 0 0 0 85.333334-85.333333v-42.666667H341.333333v42.666667a85.333333 85.333333 0 0 0 85.333334 85.333333zM341.333333 512h128v-341.333333H341.333333zM554.666667 512H682.666667v-341.333333H554.666667z"  horiz-adv-x="1026" />

    
    <glyph glyph-name="icon-des-copy1" unicode="&#59069;" d="M888.434988-124.772262h-564.854216A133.144208 133.144208 0 0 0 190.436564 8.371946V557.08747a133.144208 133.144208 0 0 0 133.144208 133.144208h564.854216a133.144208 133.144208 0 0 0 133.951143-133.144208v-551.943262a133.144208 133.144208 0 0 0-133.951143-129.91647z m-564.854216 713.330182a28.242711 28.242711 0 0 1-27.435776-31.47045v-551.943262a28.242711 28.242711 0 0 1 28.242711-28.242711h564.854216a28.242711 28.242711 0 0 1 28.242711 28.242711V557.08747a28.242711 28.242711 0 0 1-28.242711 28.242711zM149.2829 73.733649h-14.524823A133.144208 133.144208 0 0 0 1.613869 206.877857V762.855792A133.144208 133.144208 0 0 0 134.758077 896H711.716312a133.144208 133.144208 0 0 0 133.144208-133.144208v-18.559496h-104.901497v18.559496a28.242711 28.242711 0 0 1-28.242711 28.242711H134.758077a28.242711 28.242711 0 0 1-28.242711-28.242711v-555.977935a28.242711 28.242711 0 0 1 28.242711-28.242711h14.524823z"  horiz-adv-x="1024" />

    
    <glyph glyph-name="icon-des-" unicode="&#59046;" d="M186.181818 896h791.272727v-1024H186.181818c-79.127273 0-139.636364 60.509091-139.636363 139.636364V756.363636c0 79.127273 60.509091 139.636364 139.636363 139.636364z m23.272727-791.272727c-37.236364 0-69.818182-32.581818-69.818181-69.818182S172.218182-34.909091 209.454545-34.909091H884.363636v139.636364H209.454545z"  horiz-adv-x="1024" />

    
    <glyph glyph-name="icon-des-1" unicode="&#59050;" d="M139.636364 896h744.727272v-1024l-367.709091 232.727273L139.636364-128V896z m93.090909-93.090909v-46.545455h558.545454V802.909091H232.727273z"  horiz-adv-x="1024" />

    
    <glyph glyph-name="icon-des-2" unicode="&#59052;" d="M602 733.9999998000001H1162.00000039v-799.9999998H62V834h500.0000001l39.9999999-100.0000002zM162.0000002 534.00000029v-50.0000001h900V534.00000029H162.0000002z"  horiz-adv-x="1251" />

    
    <glyph glyph-name="icon-des-3" unicode="&#59053;" d="M93.090909 896h614.4L930.909091 658.618182V-128H93.090909V896z m558.545455-93.090909v-186.181818h186.181818l-186.181818 186.181818z"  horiz-adv-x="1024" />

    
    <glyph glyph-name="icon-des-4" unicode="&#59055;" d="M62 15.81818174h900v-81.81818174H62zM102.90909131 834h613.63636348v-900H102.90909131V834z m122.72727216-163.63636347v-81.81818174h81.81818174V670.36363652H225.63636348z m0-163.63636348v-81.81818174h81.81818174V506.72727305H225.63636348z m0-163.63636436v-81.81818174h81.81818174v81.81818174H225.63636348zM389.27272695 506.72727305h531.81818174v-572.72727305H389.27272695V506.72727305z m81.81818174-81.81818174v-409.09090957h368.18181826V424.90909131h-368.18181826zM471.09090869 424.90909131h368.18181826v-409.09090957h-368.18181826zM593.81818174 302.18181826h122.72727305v-286.36363652h-122.72727305z"  horiz-adv-x="1024" />

    
    <glyph glyph-name="icon-des-5" unicode="&#59056;" d="M491.54545479 384v-450H184.72727305c-24.54545479 0-40.90909131 16.36363653-40.90909131 40.90909131V384h347.72727305z m40.90909042 0H880.18181826v-409.09090869c0-24.54545479-16.36363653-40.90909131-40.90909131-40.90909131h-306.81818174V384zM102.90909131 670.36363652h818.18181738c24.54545479 0 40.90909131-16.36363653 40.90909131-40.90909131v-163.63636347c0-24.54545479-16.36363653-40.90909131-40.90909131-40.90909043H102.90909131c-24.54545479 0-40.90909131 16.36363653-40.90909131 40.90909043V629.45454521c0 24.54545479 16.36363653 40.90909131 40.90909131 40.90909131zM634.72727305 834h40.90909043c45 0 81.81818174-36.81818174 81.81818173-81.81818174s-36.81818174-81.81818174-81.81818173-81.81818173h-163.63636348V711.27272695c0 69.54545479 53.18181826 122.72727305 122.72727305 122.72727305zM389.27272695 834H348.36363653C303.36363652 834 266.54545479 797.18181826 266.54545479 752.18181826s36.81818174-81.81818174 81.81818174-81.81818173h163.63636347V711.27272695c0 69.54545479-53.18181826 122.72727305-122.72727305 122.72727305z"  horiz-adv-x="1024" />

    
    <glyph glyph-name="icon-des-6" unicode="&#59070;" d="M62 834h900v-736.36363653H62V834z m163.63636347-245.45454521v-40.90909131h572.72727306V588.54545479H225.63636348z m1e-8-163.63636348v-40.90909131h449.99999999v40.90909131H225.63636348zM389.27272695 114v-163.63636347l306.81818174 188.18181826z"  horiz-adv-x="1024" />

    
    <glyph glyph-name="icon-des-7" unicode="&#59071;" d="M512 384m-450 0a450 450 0 1 1 900 0 450 450 0 1 1-900 0ZM679.72727305 191.72727305L471.09090869 359.45454521V629.45454521h81.81818262v-229.09090869l175.90909043-143.18181826z"  horiz-adv-x="1024" />

    
    <glyph glyph-name="icon-des-8" unicode="&#59072;" d="M501.76 71.68L204.8-122.88l81.92 348.16 215.04-153.6z m-209.92 215.04L0 506.88l368.64 5.12L537.6 896l163.84-389.12 368.64-5.12-302.08-215.04 97.28-414.72-312.32 220.16-261.12 194.56z"  horiz-adv-x="1075" />

    
    <glyph glyph-name="icon-des-9" unicode="&#59073;" d="M685.71428563 832.00000031c-9.14285719 9.14285719-22.8571425 9.14285719-31.99999969 0L187.42857125 365.71428562999995c-4.57142813-4.57142813-4.57142813-9.14285719-4.57142813-13.71428532l-45.71428593-237.71428593 233.14285687 50.28571406c4.57142813 0 9.14285719 4.57142813 9.14285719 4.57142906L850.28571406 640.00000031c9.14285719 9.14285719 9.14285719 22.8571425 0 31.99999969L685.71428563 832.00000031zM109.71428563 86.85714281000003l50.28571406 274.28571469c0 9.14285719 4.57142813 18.28571437 13.71428625 22.8571425L639.99999969 850.28571469c18.28571437 18.28571437 45.71428594 18.28571437 64.00000031 0l160.00000031-160.00000032c18.28571437-18.28571437 18.28571437-45.71428594 0-64.00000031L397.71428563 155.42857125c-4.57142813-4.57142813-13.71428531-9.14285719-22.85714251-13.71428531L109.71428563 86.85714281000003zM672.00000031 818.28571406L201.1428575 352.00000031l-36.57142875-205.71428625 201.14285719 41.14285781L831.99999969 653.71428563 672.00000031 818.28571406z m13.71428532 13.71428625l-13.71428532-13.71428625 13.71428532 13.71428625zM100.57142844-4.5714281199999505h822.85714312v-91.42857188H100.57142844z"  horiz-adv-x="1024" />

    
    <glyph glyph-name="icon-des-10" unicode="&#59074;" d="M992 471.27272719H32V689.45454562h960v-218.18181843z m0-43.63636313v-523.63636406H32V427.63636406h960zM773.81818156 602.1818184399999H250.18181844V864h523.63636312v-261.81818156zM337.45454563 689.45454562h349.09090874V776.72727281H337.45454563v-87.27272718z"  horiz-adv-x="1024" />

    
    <glyph glyph-name="icon-des-11" unicode="&#59075;" d="M930.816 171.008c-139.776 112.128-180.224 55.808-241.152-5.12-45.568-45.568-157.184 48.128-251.392 144.896-96.256 96.768-190.464 210.944-144.384 251.392 63.488 63.488 116.736 101.888 5.12 241.664-112.128 139.776-187.904 33.28-248.832-27.648-71.168-71.168-5.12-335.872 256-597.504 261.632-259.584 525.312-328.192 596.48-257.024 61.44 60.928 170.496 137.216 28.16 249.344z"  horiz-adv-x="1024" />

    
    <glyph glyph-name="icon-des-12" unicode="&#59076;" d="M186.181818 896h651.636364v-1024H186.181818V896z m93.090909-93.090909v-698.181818h465.454546V802.909091H279.272727z m209.454546-791.272727c-13.963636 0-23.272727-9.309091-23.272728-23.272728s9.309091-23.272727 23.272728-23.272727h46.545454c13.963636 0 23.272727 9.309091 23.272728 23.272727s-9.309091 23.272727-23.272728 23.272728h-46.545454zM325.818182 756.363636h372.363636v-605.090909H325.818182z"  horiz-adv-x="1024" />

    
    <glyph glyph-name="icon-des-13" unicode="&#59077;" d="M560.761905 91.428571l-160.914286-165.790476v292.571429l453.485714 463.238095-555.885714-404.723809L0 476.647619 1072.761905 896l-282.819048-989.866667-229.180952 185.295238z"  horiz-adv-x="1072" />

    
    <glyph glyph-name="icon-des-14" unicode="&#59078;" d="M512 802.909091c181.527273 0 325.818182-144.290909 325.818182-325.818182v-372.363636H186.181818V477.090909c0 181.527273 144.290909 325.818182 325.818182 325.818182zM465.454545 896h93.09091v-139.636364H465.454545zM93.090909 104.727273h837.818182v-93.090909H93.090909zM381.672727-34.909091h265.309091c-18.618182-55.854545-69.818182-93.090909-130.327273-93.090909s-116.363636 37.236364-134.981818 93.090909zM372.363636 11.636364c0 79.127273 60.509091 139.636364 139.636364 139.636363s139.636364-60.509091 139.636364-139.636363H372.363636z"  horiz-adv-x="1024" />

    
    <glyph glyph-name="icon-des-15" unicode="&#59079;" d="M148.62719727 754.78857422h1019.6685791H148.62719727z m1023.37646484-29.66308594V13.211425780000013H148.62719727V725.12548828L660.31542969 380.29211425000005 1172.00366211 725.12548828zM148.62719727 754.78857422h1019.6685791L660.31542969 421.07885742C308.06628417 643.55200195 137.50354003 754.78857422 148.62719727 754.78857422z"  horiz-adv-x="1433" />

    
    <glyph glyph-name="icon-des-16" unicode="&#59080;" d="M490.90625 687.75C507.78125 755.25 566.84375 805.875 638.5625 805.875s130.78125-50.625 147.65625-118.125C1018.25 620.25 1187 409.3125 1187 156.1875v-29.53125L90.125 130.875v29.53125C90.125 409.3125 258.875 620.25 490.90625 687.75zM90.125 88.6875h1096.875v-101.25H90.125zM250.4375 337.59375l-37.96875 16.875C263.09375 468.375 347.46875 548.53125 457.15625 603.375l16.875-37.96875c-101.25-50.625-177.1875-126.5625-223.59375-227.8125z"  horiz-adv-x="1331" />

    
    <glyph glyph-name="icon-des-17" unicode="&#59081;" d="M1223.9140625 542.203125H116.4921875V779.5078125h1107.421875v-237.3046875z m0-39.55078125v-506.25H116.4921875V502.65234375h1107.421875z m-276.85546875-316.40625v-39.55078125h197.75390625v39.55078125h-197.75390625z"  horiz-adv-x="1433" />

    
    <glyph glyph-name="icon-des-18" unicode="&#59082;" d="M62 739.26315762h1042.10526357v-805.26315762H62V739.26315762z m521.05263135-663.15789405c132.63157881 0 236.84210508 104.21052627 236.84210508 236.84210508s-104.21052627 236.84210508-236.84210508 236.84210508-236.84210508-104.21052627-236.84210508-236.84210508 104.21052627-236.84210508 236.84210508-236.84210508zM393.57894747 834h378.94736865l47.36842031-94.73684239H346.21052627zM583.05263135 312.94736865000004m-142.1052627 0a142.10526357 142.10526357 0 1 1 284.21052627 0 142.10526357 142.10526357 0 1 1-284.21052627 0ZM962 597.15789492m-47.36842119 0a47.36842119 47.36842119 0 1 1 94.73684238 0 47.36842119 47.36842119 0 1 1-94.73684238 0Z"  horiz-adv-x="1185" />

    
    <glyph glyph-name="icon-des-19" unicode="&#59083;" d="M518.24 864C296.48 864 116.96 685.44 116.96 465.6c0-101.28 38.4-192.96 100.8-263.52 1.92-3.36 3.84-6.24 6.72-9.12l260.64-271.2c1.44-1.92 2.4-3.36 4.32-5.28 3.84-3.84 8.64-6.72 13.44-8.64 14.88-6.72 33.12-4.8 45.6 7.68 3.36 3.36 6.24 7.2 7.68 11.52l255.84 265.92c2.4 2.4 4.32 5.28 5.76 7.68 63.36 70.08 101.76 162.72 101.76 264.48 0 220.32-179.52 398.88-401.28 398.88z m-0.48-560.64c-99.84 0-180.96 80.64-180.96 179.52S418.4 662.4 517.76 662.4s180.96-80.64 180.96-179.52-81.12-179.52-180.96-179.52z"  horiz-adv-x="1024" />

    
    <glyph glyph-name="icon-des-Telephone1" unicode="&#59085;" d="M896-128H128V896h768v-1024z m-682.666667 85.333333h597.333334V810.666667H213.333333v-853.333334zM392.533333 128h256v-85.333333h-256z"  horiz-adv-x="1024" />

    
    <glyph glyph-name="icon-des-link" unicode="&#59086;" d="M291.446154 183.926154l367.694769 431.891692 59.943385-51.042461-367.616-431.891693zM829.44 319.015385l-63.015385 55.138461 78.769231 86.646154c70.892308 78.769231 63.015385 204.8-15.753846 275.692308s-212.676923 63.015385-283.569231-15.753846l-78.769231-86.646154-55.138461 47.261538 78.769231 86.646154c102.4 118.153846 275.692308 126.030769 385.96923 23.630769s126.030769-275.692308 23.63077-385.969231l-70.892308-86.646153z m-212.676923-236.307693l-78.769231-86.646154c-102.4-118.153846-275.692308-126.030769-385.969231-23.630769s-126.030769 267.815385-23.630769 385.969231l78.769231 86.646154 63.015385-55.138462-86.646154-86.646154c-70.892308-78.769231-63.015385-204.8 15.753846-275.692307s204.8-63.015385 275.692308 15.753846l78.76923 86.646154 63.015385-47.261539z"  horiz-adv-x="1024" />

    
    <glyph glyph-name="icon-des-text" unicode="&#59087;" d="M981.333333-128H42.666667V896h938.666666v-1024zM128-42.666667h768V810.666667H128v-853.333334zM281.6 614.4h460.8v-85.333333H281.6zM281.6 426.666667h281.6v-85.333334H281.6z"  horiz-adv-x="1024" />

    
    <glyph glyph-name="icon-des-mustfill" unicode="&#59088;" d="M609.358769 469.333333a15.254974 15.254974 0 0 1-20.795077 9.189744l-51.331282-23.210667L543.428923 511.34359a15.254974 15.254974 0 1 1-30.326154 0l6.222769-56.004923-51.331282 23.236923A15.228718 15.228718 0 1 1 458.620718 449.641026l55.164718-11.369026-37.914257-41.642667a15.228718 15.228718 0 1 1 24.549744-17.828102l27.884308 48.968205 27.858051-48.968205a15.228718 15.228718 0 1 1 24.523487 17.854359L542.72 438.272l55.138462 11.395282a15.228718 15.228718 0 0 1 11.474051 19.666051z"  horiz-adv-x="1050" />

    
    <glyph glyph-name="icon-dash-details" unicode="&#59089;" d="M511.745924-127.488256a511.744128 511.744128 0 1 0 511.744128 511.744128 507.650175 507.650175 0 0 0-511.744128-511.744128z m0 972.313843a460.569715 460.569715 0 1 1 460.569716-460.569715 463.64018 463.64018 0 0 1-460.569716 461.081459zM276.85537 243.526237h469.781109v-51.174413H276.85537zM276.85537 429.801099h469.781109v-51.174412H276.85537zM276.85537 616.075962h469.781109v-51.174413H276.85537z"  horiz-adv-x="1027" />

    
    <glyph glyph-name="icon-des-pcd" unicode="&#59090;" d="M883.75915 63.01771H142.054309A142.054309 142.054309 0 0 0 0 203.863046v550.082645A142.054309 142.054309 0 0 0 142.054309 896h741.704841a142.054309 142.054309 0 0 0 142.054309-142.054309v-550.082645a142.054309 142.054309 0 0 0-142.054309-140.845336zM142.054309 853.68595A99.74026 99.74026 0 0 1 42.31405 753.945691v-550.082645a99.74026 99.74026 0 0 1 99.740259-98.531287h741.704841a99.74026 99.74026 0 0 1 99.74026 98.531287v550.082645A99.74026 99.74026 0 0 1 883.75915 853.68595zM194.040142-67.551358h637.733176v-60.448642H194.040142zM692.136954-108.051948a169.860685 169.860685 0 0 0-75.560803 181.345927l47.754428-8.46281a120.897285 120.897285 0 0 1 54.403778-134.195986zM333.072019-108.051948l-25.992916 40.50059a120.897285 120.897285 0 0 1 53.799291 134.195986l47.754428 8.46281a169.860685 169.860685 0 0 0-75.560803-183.159386z"  horiz-adv-x="1025" />

    
    <glyph glyph-name="icon-des-mobiled" unicode="&#59091;" d="M684.57749-128H339.42251A141.803182 141.803182 0 0 0 197.619328 13.803182V754.196818A141.803182 141.803182 0 0 0 339.42251 896h345.15498a142.4066 142.4066 0 0 0 141.803182-141.803182v-740.393636a141.803182 141.803182 0 0 0-141.803182-141.803182zM339.42251 853.157336A99.563936 99.563936 0 0 1 239.858574 754.196818v-740.393636a99.563936 99.563936 0 0 1 99.563936-99.563936h345.15498a99.563936 99.563936 0 0 1 99.563936 99.563936V754.196818A99.563936 99.563936 0 0 1 684.57749 853.157336zM401.574543 39.14673h219.04066v-60.34178H401.574543z"  horiz-adv-x="1024" />

    
    <glyph glyph-name="icon-des-zuobiao" unicode="&#59092;" d="M512-64c-249.6 0-448 198.4-448 448s198.4 448 448 448 448-198.4 448-448-198.4-448-448-448zM512 768C300.8 768 128 595.2 128 384s172.8-384 384-384 384 172.8 384 384-172.8 384-384 384zM512 192c-108.8 0-192 83.2-192 192s83.2 192 192 192 192-83.2 192-192-83.2-192-192-192z m0 320c-70.4 0-128-57.6-128-128s57.6-128 128-128 128 57.6 128 128-57.6 128-128 128zM480 896h64v-128h-64zM480 0h64v-128h-64zM896 416h128v-64h-128zM0 416h128v-64H0z"  horiz-adv-x="1024" />

    
    <glyph glyph-name="icon-des-bianji" unicode="&#59093;" d="M53.894737 22.905263l59.28421 307.2c0 10.778947 5.389474 21.557895 16.168421 26.947369L652.126316 879.831579c21.557895 21.557895 53.894737 21.557895 75.452631 0l177.852632-177.852632c21.557895-21.557895 21.557895-53.894737 0-75.452631l-522.778947-522.778948c-10.778947-10.778947-16.168421-16.168421-26.947369-16.168421L53.894737 22.905263zM689.852632 842.105263l-522.778948-522.778947-43.115789-226.357895 220.968421 48.505263 522.778947 522.778948L689.852632 842.105263z m16.168421 21.557895l-16.168421-21.557895 16.168421 21.557895zM80.842105-74.105263h862.31579c16.168421 0 26.947368-10.778947 26.947368-26.947369s-10.778947-26.947368-26.947368-26.947368H80.842105c-16.168421 0-26.947368 10.778947-26.947368 26.947368s10.778947 26.947368 26.947368 26.947369zM559.265684 728.980211l38.103579 38.103578 198.170948-198.170947-38.103579-38.103579z"  horiz-adv-x="1024" />

    
    <glyph glyph-name="icon-des-shangchaun" unicode="&#59095;" d="M554.666667-118.314667h46.933333v571.733334H554.666667zM738.133333 261.418667l-192 187.733333 34.133334 29.866667 192-187.733334zM418.133333 261.418667l192 187.733333-34.133333 29.866667-192-187.733334zM896 85.333333v42.666667c119.466667 0 213.333333 93.866667 213.333333 213.333333s-93.866667 213.333333-213.333333 213.333334h-17.066667l-4.266666 17.066666c-21.333333 149.333333-149.333333 260.266667-298.666667 260.266667-145.066667 0-268.8-106.666667-294.4-251.733333l-4.266667-12.8h-17.066666c-110.933333-12.8-196.266667-106.666667-196.266667-221.866667 0-119.466667 98.133333-217.6 217.6-217.6v-42.666667C136.533333 85.333333 21.333333 200.533333 21.333333 345.6c0 132.266667 93.866667 238.933333 221.866667 260.266667 34.133333 157.866667 170.666667 268.8 332.8 268.8 166.4 0 307.2-119.466667 337.066667-277.333334 136.533333-8.533333 238.933333-119.466667 238.933333-256 0-140.8-115.2-256-256-256z"  horiz-adv-x="1152" />

    
    <glyph glyph-name="icon-des-zhuce" unicode="&#59094;" d="M61.44 523.264h-40.96V773.12C20.48 830.464 65.536 875.52 122.88 875.52h245.76v-40.96H122.88c-32.768 0-61.44-28.672-61.44-61.44v-249.856zM1003.52 523.264h-40.96V773.12c0 32.768-28.672 61.44-61.44 61.44h-245.76v40.96h245.76c57.344 0 102.4-45.056 102.4-102.4v-249.856zM368.64-111.616H122.88c-57.344 0-102.4 45.056-102.4 102.4V240.64h40.96v-249.856c0-32.768 28.672-61.44 61.44-61.44h245.76v-40.96zM901.12-111.616h-245.76v40.96h245.76c32.768 0 61.44 28.672 61.44 61.44V240.64h40.96v-249.856c0-57.344-45.056-102.4-102.4-102.4zM327.68 404.48h368.64v-40.96H327.68zM491.52 568.32h40.96v-368.64h-40.96z"  horiz-adv-x="1024" />

    
    <glyph glyph-name="icon-des-denglu" unicode="&#59096;" d="M19.692308 423.384615h496.246154v-39.384615H19.692308zM452.923077 301.292308l-27.569231 27.56923 74.830769 74.83077-74.830769 74.830769 27.569231 27.569231 102.4-102.4zM905.846154-108.307692H220.553846c-55.138462 0-98.461538 43.323077-98.461538 98.461538v236.307692h39.384615v-236.307692c0-31.507692 27.569231-59.076923 59.076923-59.076923h685.292308c31.507692 0 59.076923 27.569231 59.076923 59.076923V797.538462c0 31.507692-27.569231 59.076923-59.076923 59.076923H220.553846c-31.507692 0-59.076923-27.569231-59.076923-59.076923v-192.984616h-39.384615V797.538462C122.092308 852.676923 165.415385 896 220.553846 896h685.292308C960.984615 896 1004.307692 852.676923 1004.307692 797.538462V-9.846154c0-55.138462-43.323077-98.461538-98.461538-98.461538z"  horiz-adv-x="1024" />

    
    <glyph glyph-name="icon-des-anniu" unicode="&#59107;" d="M967.111111-128H56.888889c-34.133333 0-56.888889 22.755556-56.888889 56.888889V839.111111c0 34.133333 22.755556 56.888889 56.888889 56.888889h910.222222c34.133333 0 56.888889-22.755556 56.888889-56.888889v-910.222222c0-34.133333-22.755556-56.888889-56.888889-56.888889zM56.888889 839.111111v-910.222222h910.222222V839.111111H56.888889z m0 28.444445V839.111111 867.555556zM227.555556 412.444444h568.888888v-56.888888H227.555556z"  horiz-adv-x="1024" />

    
    <glyph glyph-name="icon-des-huandengpian" unicode="&#59108;" d="M967.111111-128H56.888889c-34.133333 0-56.888889 22.755556-56.888889 56.888889V839.111111c0 34.133333 22.755556 56.888889 56.888889 56.888889h910.222222c34.133333 0 56.888889-22.755556 56.888889-56.888889v-910.222222c0-34.133333-22.755556-56.888889-56.888889-56.888889zM56.888889 839.111111v-910.222222h910.222222V839.111111H56.888889z m0 28.444445V839.111111 867.555556zM603.022222 253.155556L443.733333 412.444444l-136.533333-130.844444-39.822222 39.822222 176.355555 164.977778 159.288889-153.6 147.911111 147.911111 39.822223-39.822222z"  horiz-adv-x="1024" />

    
    <glyph glyph-name="icon-des-daohang" unicode="&#59109;" d="M967.111111 99.555556H56.888889c-34.133333 0-56.888889 22.755556-56.888889 56.888888V611.555556c0 34.133333 22.755556 56.888889 56.888889 56.888888h910.222222c34.133333 0 56.888889-22.755556 56.888889-56.888888v-455.111112c0-34.133333-22.755556-56.888889-56.888889-56.888888zM56.888889 611.555556v-455.111112h910.222222V611.555556H56.888889z m0 28.444444V611.555556v28.444444zM398.222222 412.444444h227.555556v-56.888888H398.222222zM113.777778 412.444444h227.555555v-56.888888H113.777778zM682.666667 412.444444h227.555555v-56.888888h-227.555555z"  horiz-adv-x="1024" />

    
    <glyph glyph-name="icon-des-shipin" unicode="&#59110;" d="M967.111111-128H56.888889c-34.133333 0-56.888889 22.755556-56.888889 56.888889V839.111111c0 34.133333 22.755556 56.888889 56.888889 56.888889h910.222222c34.133333 0 56.888889-22.755556 56.888889-56.888889v-910.222222c0-34.133333-22.755556-56.888889-56.888889-56.888889zM56.888889 839.111111v-910.222222h910.222222V839.111111H56.888889z m0 28.444445V839.111111 867.555556zM381.155556 150.755556V617.244444L745.244444 384l-364.088888-233.244444z m56.888888 364.088888v-256L642.844444 384 438.044444 514.844444z"  horiz-adv-x="1024" />

    
    <glyph glyph-name="icon-des-liebiao" unicode="&#59111;" d="M938.666667-128h-853.333334C39.822222-128 0-88.17777799999999 0-42.66666699999996v853.333334C0 856.177778 39.822222 896 85.333333 896h853.333334c45.511111 0 85.333333-39.822222 85.333333-85.333333v-853.333334c0-45.511111-39.822222-85.333333-85.333333-85.333333zM85.333333 839.111111c-17.066667 0-28.444444-11.377778-28.444444-28.444444v-853.333334c0-17.066667 11.377778-28.444444 28.444444-28.444444h853.333334c17.066667 0 28.444444 11.377778 28.444444 28.444444v853.333334c0 17.066667-11.377778 28.444444-28.444444 28.444444h-853.333334zM227.555556 611.555556h113.777777v-56.888889H227.555556zM398.222222 611.555556h398.222222v-56.888889H398.222222zM227.555556 406.755556h113.777777v-56.888889H227.555556zM398.222222 406.755556h398.222222v-56.888889H398.222222zM227.555556 213.33333300000004h113.777777v-56.888889H227.555556zM398.222222 213.33333300000004h398.222222v-56.888889H398.222222z"  horiz-adv-x="1024" />

    
    <glyph glyph-name="icon-des-mima" unicode="&#59112;" d="M967.111111-128H56.888889c-34.133333 0-56.888889 22.755556-56.888889 56.888889V611.555556c0 34.133333 22.755556 56.888889 56.888889 56.888888h910.222222c34.133333 0 56.888889-22.755556 56.888889-56.888888v-682.666667c0-34.133333-22.755556-56.888889-56.888889-56.888889zM56.888889 611.555556v-682.666667h910.222222V611.555556H56.888889z m0 28.444444V611.555556v28.444444zM796.444444 611.555556H227.555556V839.111111c0 34.133333 22.755556 56.888889 56.888888 56.888889h455.111112c34.133333 0 56.888889-22.755556 56.888888-56.888889v-227.555555zM284.444444 668.444444h455.111112V839.111111H284.444444v-170.666667zM625.777778 230.4H398.222222c-34.133333 0-56.888889-5.688889-56.888889 28.444444s22.755556 28.444444 56.888889 28.444445h227.555556c34.133333 0 56.888889 5.688889 56.888889-28.444445s-22.755556-28.444444-56.888889-28.444444z m-227.555556 45.511111v-17.066667 17.066667z"  horiz-adv-x="1024" />

    
    <glyph glyph-name="icon-des-gaoji" unicode="&#59113;" d="M512-116.622222L0 514.844444 233.244444 839.111111h557.511112L1024 514.844444 512-116.622222zM73.955556 520.533333L512-25.6l438.044444 546.133333L762.311111 782.222222H261.688889L73.955556 520.533333zM512-116.622222l-284.444444 625.777778 11.377777 295.822222h56.888889l-11.377778-284.444445 227.555556-500.622222 238.933333 500.622222-11.377777 284.444445h56.888888l11.377778-295.822222zM34.133333 543.288889h961.422223v-56.888889H34.133333z"  horiz-adv-x="1024" />

    
    <glyph glyph-name="icon-des-rongi" unicode="&#59115;" d="M967.111111-128H56.888889c-34.133333 0-56.888889 22.755556-56.888889 56.888889V839.111111c0 34.133333 22.755556 56.888889 56.888889 56.888889h910.222222c34.133333 0 56.888889-22.755556 56.888889-56.888889v-910.222222c0-34.133333-22.755556-56.888889-56.888889-56.888889zM56.888889 839.111111v-910.222222h910.222222V839.111111H56.888889z m0 28.444445V839.111111 867.555556zM227.555556 668.444444h56.888888v-56.888888H227.555556zM227.555556 583.111111h56.888888v-56.888889H227.555556zM739.555556 156.444444h56.888888v-56.888888h-56.888888zM227.555556 497.777778h56.888888v-56.888889H227.555556zM227.555556 412.444444h56.888888v-56.888888H227.555556zM227.555556 327.111111h56.888888v-56.888889H227.555556zM227.555556 241.777778h56.888888v-56.888889H227.555556zM739.555556 668.444444h56.888888v-56.888888h-56.888888zM739.555556 583.111111h56.888888v-56.888889h-56.888888zM739.555556 497.777778h56.888888v-56.888889h-56.888888zM739.555556 412.444444h56.888888v-56.888888h-56.888888zM739.555556 327.111111h56.888888v-56.888889h-56.888888zM739.555556 241.777778h56.888888v-56.888889h-56.888888zM318.577778 668.444444h56.888889v-56.888888h-56.888889zM403.911111 668.444444h56.888889v-56.888888h-56.888889zM489.244444 668.444444h56.888889v-56.888888h-56.888889zM574.577778 668.444444h56.888889v-56.888888h-56.888889zM659.911111 668.444444h56.888889v-56.888888h-56.888889zM318.577778 156.444444h56.888889v-56.888888h-56.888889zM403.911111 156.444444h56.888889v-56.888888h-56.888889zM489.244444 156.444444h56.888889v-56.888888h-56.888889zM574.577778 156.444444h56.888889v-56.888888h-56.888889zM659.911111 156.444444h56.888889v-56.888888h-56.888889zM227.555556 156.444444h56.888888v-56.888888H227.555556z"  horiz-adv-x="1024" />

    
    <glyph glyph-name="icon-des-wenzi" unicode="&#59116;" d="M938.666667-128h-853.333334C39.822222-128 0-88.177778 0-42.666667v853.333334C0 856.177778 39.822222 896 85.333333 896h853.333334c45.511111 0 85.333333-39.822222 85.333333-85.333333v-853.333334c0-45.511111-39.822222-85.333333-85.333333-85.333333zM85.333333 839.111111c-17.066667 0-28.444444-11.377778-28.444444-28.444444v-853.333334c0-17.066667 11.377778-28.444444 28.444444-28.444444h853.333334c17.066667 0 28.444444 11.377778 28.444444 28.444444v853.333334c0 17.066667-11.377778 28.444444-28.444444 28.444444h-853.333334zM483.555556 668.444444h56.888888l-227.555555-568.888888h-56.888889zM540.444444 668.444444h-56.888888l227.555555-568.888888h56.888889zM369.777778 327.111111h284.444444l34.133334-56.888889H335.644444z"  horiz-adv-x="1024" />

    
    <glyph glyph-name="icon-des-tuji" unicode="&#59117;" d="M551.822222 99.555556h358.4v56.888888h51.2c17.066667 0 28.444444 11.377778 28.444445 28.444445v568.888889c0 17.066667-11.377778 28.444444-28.444445 28.444444h-739.555555c-17.066667 0-28.444444-11.377778-28.444445-28.444444v-102.4H136.533333V782.222222c0 34.133333 22.755556 56.888889 56.888889 56.888889h796.444445c34.133333 0 56.888889-22.755556 56.888889-56.888889v-625.777778c0-34.133333-22.755556-56.888889-56.888889-56.888888H551.822222zM847.644444-82.488889h-739.555555c-22.755556 0-39.822222 5.688889-56.888889 22.755556-17.066667 5.688889-28.444444 22.755556-28.444444 45.511111V611.555556c0 34.133333 22.755556 56.888889 56.888888 56.888888h796.444445c34.133333 0 56.888889-22.755556 56.888889-56.888888v-625.777778c0-22.755556-11.377778-39.822222-28.444445-51.2-17.066667-11.377778-34.133333-17.066667-56.888889-17.066667zM85.333333-14.222222H876.088889c0 5.688889 5.688889 11.377778 5.688889 17.066666V583.111111c-5.688889 17.066667-17.066667 28.444444-34.133334 28.444445h-739.555555c-17.066667 0-28.444444-11.377778-28.444445-28.444445v-585.955555s0-5.688889 5.688889-11.377778zM45.511111 25.6l-45.511111 34.133333 227.555556 284.444445 153.6-102.4 199.111111 244.622222 352.711111-369.777778-45.511111-34.133333-301.511111 312.888889-193.422223-233.244445L238.933333 270.222222z"  horiz-adv-x="1046" />

    
    <glyph glyph-name="icon-des-xiantiao" unicode="&#59118;" d="M938.666667-128h-853.333334C39.822222-128 0-88.177778 0-42.666667v853.333334C0 856.177778 39.822222 896 85.333333 896h853.333334c45.511111 0 85.333333-39.822222 85.333333-85.333333v-853.333334c0-45.511111-39.822222-85.333333-85.333333-85.333333zM85.333333 839.111111c-17.066667 0-28.444444-11.377778-28.444444-28.444444v-853.333334c0-17.066667 11.377778-28.444444 28.444444-28.444444h853.333334c17.066667 0 28.444444 11.377778 28.444444 28.444444v853.333334c0 17.066667-11.377778 28.444444-28.444444 28.444444h-853.333334zM262.599111 593.180444l40.220445 40.220445 454.542222-454.542222-40.220445-40.220445zM284.444444 611.555556m-56.888888 0a56.888889 56.888889 0 1 1 113.777777 0 56.888889 56.888889 0 1 1-113.777777 0ZM284.444444 526.222222c-45.511111 0-85.333333 39.822222-85.333333 85.333334S238.933333 696.888889 284.444444 696.888889s85.333333-39.822222 85.333334-85.333333S329.955556 526.222222 284.444444 526.222222z m0 113.777778c-17.066667 0-28.444444-11.377778-28.444444-28.444444s11.377778-28.444444 28.444444-28.444445 28.444444 11.377778 28.444445 28.444445-11.377778 28.444444-28.444445 28.444444zM739.555556 156.444444m-56.888889 0a56.888889 56.888889 0 1 1 113.777777 0 56.888889 56.888889 0 1 1-113.777777 0ZM739.555556 71.111111c-45.511111 0-85.333333 39.822222-85.333334 85.333333s39.822222 85.333333 85.333334 85.333334 85.333333-39.822222 85.333333-85.333334-39.822222-85.333333-85.333333-85.333333z m0 113.777778c-17.066667 0-28.444444-11.377778-28.444445-28.444445s11.377778-28.444444 28.444445-28.444444 28.444444 11.377778 28.444444 28.444444-11.377778 28.444444-28.444444 28.444445z"  horiz-adv-x="1024" />

    
    <glyph glyph-name="icon-des-zhanweidfu" unicode="&#59119;" d="M665.6 640H56.888889c-17.066667 0-28.444444-11.377778-28.444445-28.444444v-227.555556 199.111111c0 34.133333 22.755556 56.888889 56.888889 56.888889h580.266667zM28.444444 384v-227.555556c0-17.066667 11.377778-28.444444 28.444445-28.444444h608.711111H85.333333c-34.133333 0-56.888889 22.755556-56.888889 56.888889V384z m847.644445 256h62.577778c34.133333 0 56.888889-22.755556 56.888889-56.888889V384 611.555556c0 17.066667-11.377778 28.444444-28.444445 28.444444h-91.022222zM995.555556 384v-199.111111c0-34.133333-22.755556-56.888889-56.888889-56.888889h-62.577778H967.111111c17.066667 0 28.444444 11.377778 28.444445 28.444444V384zM967.111111 99.555556h-85.333333v56.888888h56.888889c17.066667 0 28.444444 11.377778 28.444444 28.444445v398.222222c0 17.066667-11.377778 28.444444-28.444444 28.444445h-56.888889V668.444444H967.111111c34.133333 0 56.888889-22.755556 56.888889-56.888888v-455.111112c0-34.133333-22.755556-56.888889-56.888889-56.888888z m-301.511111 0H56.888889c-34.133333 0-56.888889 22.755556-56.888889 56.888888V611.555556c0 34.133333 22.755556 56.888889 56.888889 56.888888h608.711111v-56.888888H85.333333c-17.066667 0-28.444444-11.377778-28.444444-28.444445v-398.222222c0-17.066667 11.377778-28.444444 28.444444-28.444445h580.266667v-56.888888zM682.666667 896h170.666666v-56.888889h-170.666666zM682.666667-71.111111h170.666666v-56.888889h-170.666666zM739.555556 839.111111h56.888888v-910.222222h-56.888888z"  horiz-adv-x="1024" />

    
    </font>
</defs>
</svg>
